<?xml version="1.0" encoding="UTF-8"?>
<!DOCTYPE svg PUBLIC "-//W3C//DTD SVG 1.1//EN" "http://www.w3.org/Graphics/SVG/1.1/DTD/svg11.dtd">
<!-- Creator: CorelDRAW -->
<svg xmlns="http://www.w3.org/2000/svg" xml:space="preserve" width="4.2338mm" height="4.2338mm" version="1.1" style="shape-rendering:geometricPrecision; text-rendering:geometricPrecision; image-rendering:optimizeQuality; fill-rule:evenodd; clip-rule:evenodd"
viewBox="0 0 423.34 423.34"
 xmlns:xlink="http://www.w3.org/1999/xlink"
 xmlns:xodm="http://www.corel.com/coreldraw/odm/2003">
 <defs>
  <style type="text/css">
   <![CDATA[
    .fil0 {fill:none}
    .fil1 {fill:black}
   ]]>
  </style>
 </defs>
 <g id="Capa_x0020_1">
  <metadata id="CorelCorpID_0Corel-Layer"/>
  <rect class="fil0" x="0.04" y="0.04" width="423.29" height="423.29"/>
  <path class="fil1" d="M153.79 26.46l0 127.33 -127.33 0c-6.12,0 -13.16,3.61 -17.59,8.05 -3.86,3.87 -8.87,10.31 -8.87,17.59l0 64.49c0,9.52 8.54,18.83 16.04,22.83 1.99,1.06 7.73,2.8 10.42,2.8l127.33 0 0 127.34c0,12.29 13.38,26.46 25.64,26.46l64.49 0c6.97,0 13.47,-4.78 17.17,-8.46 4.45,-4.43 8.46,-11.47 8.46,-18l0 -127.34 127.34 0c12.29,0 26.46,-13.37 26.46,-25.63l0 -64.49c0,-12.2 -14.3,-25.64 -26.46,-25.64l-127.34 0 0 -127.33c0,-12.29 -13.37,-26.46 -25.63,-26.46l-64.49 0c-12.2,0 -25.64,14.29 -25.64,26.46z"/>
 </g>
</svg>
