<?xml version="1.0" encoding="UTF-8"?>
<!DOCTYPE svg PUBLIC "-//W3C//DTD SVG 1.1//EN" "http://www.w3.org/Graphics/SVG/1.1/DTD/svg11.dtd">
<!-- Creator: CorelDRAW -->
<svg xmlns="http://www.w3.org/2000/svg" xml:space="preserve" width="1.27mm" height="1.27mm" version="1.1" style="shape-rendering:geometricPrecision; text-rendering:geometricPrecision; image-rendering:optimizeQuality; fill-rule:evenodd; clip-rule:evenodd"
viewBox="0 0 127 127"
 xmlns:xlink="http://www.w3.org/1999/xlink"
 xmlns:xodm="http://www.corel.com/coreldraw/odm/2003">
 <defs>
  <style type="text/css">
   <![CDATA[
    .fil0 {fill:none}
    .fil1 {fill:black}
   ]]>
  </style>
 </defs>
 <g id="Capa_x0020_1">
  <metadata id="CorelCorpID_0Corel-Layer"/>
  <rect class="fil0" width="127" height="127"/>
  <g id="_2710824559776">
   <path class="fil1" d="M59.78 107.65l0 -53.08c0,-5.89 7.44,-5.89 7.44,0l0 53.08c0,5.9 -7.44,5.9 -7.44,0zm24.31 -57.54c1.22,0 2.22,0.62 2.83,1.38 1.82,2.25 0.39,12.49 0.39,16.47 -0.01,1.49 0,2.98 0.01,4.47 0.01,1.8 -0.27,2.48 -0.26,4.21 0.01,1.49 0.01,2.99 0.01,4.48 0.01,1.69 -0.26,2.26 -0.26,3.96 0.01,1.49 0.01,2.98 0.01,4.47 0.01,1.73 -0.26,2.41 -0.25,4.21 0.01,1.49 0.01,2.99 0.01,4.48 0,1.62 -0.27,2.39 -0.26,4.2 0.02,3.07 0.88,9.63 -3.72,9.63 -5.15,0 -3.46,-7.02 -3.47,-9.12 0,-1.5 0,-2.99 -0.01,-4.48 0,-1.73 0.27,-2.41 0.26,-4.21 -0.01,-1.49 -0.01,-2.98 -0.01,-4.47 0,-1.63 0.27,-2.39 0.26,-4.21 -0.01,-1.48 -0.03,-3 -0.02,-4.48 0.02,-1.48 0.27,-2.22 0.26,-3.96 0,-1.48 -0.03,-2.99 -0.01,-4.47 0.02,-1.51 0.27,-2.41 0.26,-4.21l0.25 -8.68c-0.01,-2.82 -0.83,-9.67 3.72,-9.67zm-41.43 0c5.46,0 3.76,8.04 4.21,13.4 0.11,1.32 0.01,3.09 0.01,4.46l0.25 8.68c-0.01,1.78 0.21,2.78 0.25,4.21 0.05,1.37 0,2.84 0,4.22l0.24 8.68c0,1.81 0.24,2.7 0.26,4.21 0.02,1.48 0,2.99 -0.01,4.48 -0.01,2.78 1.7,9.27 -3.27,9.61 -2.66,0.18 -3.8,-2.1 -3.92,-4.65 -0.07,-1.41 0,-3.03 0,-4.47l-0.51 -12.89c-0.02,-1.48 0.01,-2.99 0.01,-4.47 0.01,-1.82 -0.25,-2.59 -0.25,-4.21 -0.01,-1.41 0,-2.82 0.01,-4.23 0.01,-1.82 -0.26,-2.58 -0.26,-4.21 0,-1.48 0,-2.98 0.01,-4.47 0.01,-1.8 -0.26,-2.48 -0.26,-4.21 0.01,-1.49 0.01,-2.98 0.01,-4.48 0.02,-3.09 -1.31,-7.4 1.58,-9.08 0.31,-0.18 1.3,-0.58 1.64,-0.58zm1.74 76.89l38.2 0c7.36,0 13.8,-6.26 15.04,-13.98l2.75 -45.62c0.15,-1.06 0,-2.1 0.08,-3.14l1.23 -21.6 -76.4 0 3.82 67.12c0.6,3.98 -0.01,5.51 2.82,10.08 0.74,1.2 2.01,2.49 3.09,3.37 2.42,1.98 5.94,3.77 9.37,3.77z"/>
   <path class="fil1" d="M49.86 9.18c0,-1.16 0.58,-1.74 1.73,-1.74l23.82 0c1.15,0 1.73,0.58 1.73,1.74l0 8.68 -27.28 0 0 -8.68zm-7.44 -1l0 9.68 -19.11 0c-2.84,0 -5.7,2.84 -5.7,5.7l0 5.96c0,2.82 2.88,5.7 5.7,5.7l80.38 0c2.86,0 5.7,-2.86 5.7,-5.7l0 -5.96c0,-2.84 -2.84,-5.7 -5.7,-5.7l-19.1 0 0 -9.68c0,-4.23 -3.95,-8.18 -8.19,-8.18l-25.8 0c-4.23,0 -8.18,3.95 -8.18,8.18z"/>
  </g>
 </g>
</svg>
