<?xml version="1.0" encoding="UTF-8"?>
<!DOCTYPE svg PUBLIC "-//W3C//DTD SVG 1.1//EN" "http://www.w3.org/Graphics/SVG/1.1/DTD/svg11.dtd">
<!-- Creator: CorelDRAW -->
<svg xmlns="http://www.w3.org/2000/svg" xml:space="preserve" width="4.5364mm" height="3.4548mm" version="1.1" style="shape-rendering:geometricPrecision; text-rendering:geometricPrecision; image-rendering:optimizeQuality; fill-rule:evenodd; clip-rule:evenodd"
viewBox="0 0 12.35 9.4"
 xmlns:xlink="http://www.w3.org/1999/xlink"
 xmlns:xodm="http://www.corel.com/coreldraw/odm/2003">
 <defs>
  <style type="text/css">
   <![CDATA[
    .fil0 {fill:#CC0007;fill-rule:nonzero}
   ]]>
  </style>
 </defs>
 <g id="Capa_x0020_1">
  <metadata id="CorelCorpID_0Corel-Layer"/>
  <g>
   <path class="fil0" d="M0.46 0.91c-0.25,0 -0.46,-0.2 -0.46,-0.46 0,-0.25 0.2,-0.46 0.46,-0.46l0 0.91zm1.25 0l-1.25 0 0 -0.91 1.25 0 0 0.91zm0 -0.91c0.25,0 0.46,0.2 0.46,0.46 0,0.25 -0.2,0.46 -0.46,0.46l0 -0.91z"/>
  </g>
  <g>
   <path class="fil0" d="M1.71 0.91c-0.25,0 -0.46,-0.2 -0.46,-0.46 0,-0.25 0.2,-0.46 0.46,-0.46l0 0.91zm1.52 0.12l-0.85 0.33 -0.01 -0.02 -0.01 -0.02 -0.01 -0.02 -0.01 -0.02 -0.01 -0.02 -0.01 -0.02 -0.02 -0.02 -0.02 -0.02 -0.02 -0.02 -0.02 -0.02 -0.02 -0.02 -0.02 -0.02 -0.02 -0.02 -0.02 -0.02 -0.02 -0.02 -0.02 -0.02 -0.03 -0.02 -0.03 -0.02 -0.03 -0.01 -0.03 -0.01 -0.03 -0.01 -0.03 -0.01 -0.03 -0.01 -0.03 -0.01 -0.03 -0.01 -0.03 -0.01 -0.02 -0.01 -0.02 -0 -0.02 -0 -0.02 -0 -0.02 -0 -0.02 -0 0 -0.91 0.06 0 0.06 0 0.06 0.01 0.06 0.01 0.06 0.01 0.06 0.01 0.06 0.02 0.06 0.02 0.06 0.02 0.06 0.02 0.05 0.02 0.05 0.03 0.05 0.03 0.05 0.03 0.05 0.03 0.05 0.03 0.05 0.03 0.05 0.04 0.05 0.04 0.04 0.04 0.04 0.04 0.04 0.04 0.04 0.04 0.04 0.05 0.04 0.05 0.04 0.05 0.03 0.05 0.03 0.05 0.03 0.05 0.03 0.05 0.03 0.06 0.02 0.06zm0 0c0.09,0.23 -0.02,0.5 -0.26,0.59 -0.23,0.09 -0.5,-0.02 -0.59,-0.26l0.85 -0.33z"/>
  </g>
  <g>
   <path class="fil0" d="M2.38 1.37c-0.09,-0.23 0.02,-0.5 0.26,-0.59 0.23,-0.09 0.5,0.02 0.59,0.26l-0.85 0.33zm1.74 4.42l-1.74 -4.42 0.85 -0.33 1.74 4.42 -0.85 0.33zm0.85 -0.33c0.09,0.23 -0.02,0.5 -0.26,0.59 -0.23,0.09 -0.5,-0.02 -0.59,-0.26l0.85 -0.33z"/>
  </g>
  <g>
   <path class="fil0" d="M4.12 5.79c-0.09,-0.23 0.02,-0.5 0.26,-0.59 0.23,-0.09 0.5,0.02 0.59,0.26l-0.85 0.33zm1.52 0.12l0 0.91 -0.06 -0 -0.06 -0 -0.06 -0.01 -0.06 -0.01 -0.06 -0.01 -0.06 -0.01 -0.06 -0.02 -0.06 -0.02 -0.06 -0.02 -0.06 -0.02 -0.05 -0.02 -0.05 -0.03 -0.05 -0.03 -0.05 -0.03 -0.05 -0.03 -0.05 -0.03 -0.05 -0.03 -0.05 -0.04 -0.05 -0.04 -0.05 -0.04 -0.04 -0.04 -0.04 -0.04 -0.04 -0.04 -0.04 -0.05 -0.04 -0.05 -0.04 -0.05 -0.03 -0.05 -0.03 -0.05 -0.03 -0.05 -0.03 -0.05 -0.03 -0.06 -0.02 -0.06 0.85 -0.33 0.01 0.02 0.01 0.02 0.01 0.02 0.01 0.02 0.01 0.02 0.01 0.02 0.02 0.02 0.02 0.02 0.02 0.02 0.02 0.02 0.02 0.02 0.02 0.02 0.02 0.02 0.02 0.02 0.02 0.02 0.02 0.02 0.03 0.02 0.03 0.02 0.03 0.01 0.03 0.01 0.03 0.01 0.03 0.01 0.03 0.01 0.03 0.01 0.03 0.01 0.02 0.01 0.02 0.01 0.02 0 0.02 0 0.02 0 0.02 0 0.02 0zm0 0c0.25,0 0.46,0.2 0.46,0.46 0,0.25 -0.2,0.46 -0.46,0.46l0 -0.91z"/>
  </g>
  <g>
   <path class="fil0" d="M5.63 6.82c-0.25,0 -0.46,-0.2 -0.46,-0.46 0,-0.25 0.2,-0.46 0.46,-0.46l0 0.91zm4.31 0l-4.31 0 0 -0.91 4.31 0 0 0.91zm0 -0.91c0.25,0 0.46,0.2 0.46,0.46 0,0.25 -0.2,0.46 -0.46,0.46l0 -0.91z"/>
  </g>
  <g>
   <path class="fil0" d="M9.94 6.82c-0.25,0 -0.46,-0.2 -0.46,-0.46 0,-0.25 0.2,-0.46 0.46,-0.46l0 0.91zm0.63 -1.36l0.86 0.3 -0.02 0.06 -0.02 0.06 -0.03 0.06 -0.03 0.06 -0.03 0.05 -0.03 0.05 -0.04 0.05 -0.04 0.05 -0.04 0.05 -0.04 0.04 -0.04 0.04 -0.04 0.04 -0.04 0.04 -0.05 0.04 -0.05 0.04 -0.05 0.03 -0.05 0.03 -0.05 0.03 -0.05 0.03 -0.05 0.03 -0.05 0.03 -0.05 0.02 -0.05 0.02 -0.06 0.02 -0.06 0.02 -0.06 0.02 -0.06 0.01 -0.06 0.01 -0.06 0.01 -0.06 0.01 -0.06 0 -0.06 0 0 -0.91 0.02 -0 0.02 -0 0.02 -0 0.02 -0 0.02 -0 0.02 -0.01 0.03 -0.01 0.02 -0.01 0.02 -0.01 0.03 -0.01 0.03 -0.01 0.02 -0.01 0.02 -0.01 0.03 -0.01 0.02 -0.02 0.02 -0.02 0.02 -0.02 0.02 -0.02 0.02 -0.02 0.02 -0.02 0.02 -0.02 0.02 -0.02 0.02 -0.02 0.02 -0.02 0.02 -0.02 0.01 -0.02 0.01 -0.02 0.01 -0.02 0.01 -0.02 0.01 -0.02 0.01 -0.02 0.01 -0.02zm0 0c0.08,-0.24 0.34,-0.36 0.58,-0.28 0.24,0.08 0.36,0.34 0.28,0.58l-0.86 -0.3z"/>
  </g>
  <g>
   <path class="fil0" d="M11.44 5.76c-0.08,0.24 -0.34,0.36 -0.58,0.28 -0.24,-0.08 -0.36,-0.34 -0.28,-0.58l0.86 0.3zm0.84 -2.37l-0.84 2.37 -0.86 -0.3 0.84 -2.37 0.86 0.3zm-0.86 -0.3c0.08,-0.24 0.34,-0.36 0.58,-0.28 0.24,0.08 0.36,0.34 0.28,0.58l-0.86 -0.3z"/>
  </g>
  <g>
   <path class="fil0" d="M12.28 3.39c-0.08,0.24 -0.34,0.36 -0.58,0.28 -0.24,-0.08 -0.36,-0.34 -0.28,-0.58l0.86 0.3zm-0.96 -0.45l0 -0.91 0.06 0 0.06 0 0.06 0.01 0.06 0.01 0.06 0.01 0.06 0.02 0.06 0.02 0.06 0.02 0.06 0.03 0.05 0.03 0.05 0.03 0.05 0.04 0.05 0.04 0.04 0.05 0.04 0.05 0.04 0.05 0.03 0.05 0.03 0.05 0.03 0.06 0.02 0.06 0.02 0.06 0.02 0.06 0.01 0.06 0.01 0.06 0 0.06 0 0.06 -0 0.06 -0.01 0.06 -0.01 0.06 -0.01 0.06 -0.02 0.06 -0.02 0.06 -0.86 -0.3 0.01 -0.02 0 -0.02 0 -0.02 0 -0.01 0 -0.01 0 -0.01 -0 -0.01 -0 -0.01 -0 -0.01 -0 -0 -0 -0 -0 -0 -0 -0 -0 -0 0 0 -0 -0 -0 -0 -0 -0 0 0 -0 0 -0 -0 -0 -0 -0 -0 -0 -0 -0.01 -0 -0.01 -0 -0.01 -0 -0.01 -0 -0.01 -0 -0.01 -0 -0.02 -0 -0.02 -0zm0 0c-0.25,0 -0.46,-0.2 -0.46,-0.46 0,-0.25 0.2,-0.46 0.46,-0.46l0 0.91z"/>
  </g>
  <g>
   <path class="fil0" d="M11.31 2.03c0.25,0 0.46,0.2 0.46,0.46 0,0.25 -0.2,0.46 -0.46,0.46l0 -0.91zm-5.94 0l5.94 0 0 0.91 -5.94 0 0 -0.91zm0 0.91c-0.25,0 -0.46,-0.2 -0.46,-0.46 0,-0.25 0.2,-0.46 0.46,-0.46l0 0.91z"/>
  </g>
  <path class="fil0" d="M5.47 8.39c0,0.56 -0.45,1.01 -1.01,1.01 -0.56,0 -1.01,-0.45 -1.01,-1.01 0,-0.56 0.45,-1.01 1.01,-1.01 0.56,0 1.01,0.45 1.01,1.01z"/>
  <path class="fil0" d="M11.98 8.39c0,0.56 -0.45,1.01 -1.01,1.01 -0.56,0 -1.01,-0.45 -1.01,-1.01 0,-0.56 0.45,-1.01 1.01,-1.01 0.56,0 1.01,0.45 1.01,1.01z"/>
  <g>
   <path class="fil0" d="M5.89 4.04c-0.13,0 -0.23,-0.1 -0.23,-0.23 0,-0.13 0.1,-0.23 0.23,-0.23l0 0.46zm4.03 0l-4.03 0 0 -0.46 4.03 0 0 0.46zm0 -0.46c0.13,0 0.23,0.1 0.23,0.23 0,0.13 -0.1,0.23 -0.23,0.23l0 -0.46z"/>
  </g>
  <g>
   <path class="fil0" d="M6.31 5.18c-0.13,0 -0.23,-0.1 -0.23,-0.23 0,-0.13 0.1,-0.23 0.23,-0.23l0 0.46zm3.31 0l-3.31 0 0 -0.46 3.31 0 0 0.46zm0 -0.46c0.13,0 0.23,0.1 0.23,0.23 0,0.13 -0.1,0.23 -0.23,0.23l0 -0.46z"/>
  </g>
 </g>
</svg>
