<?xml version="1.0" encoding="UTF-8"?>
<!DOCTYPE svg PUBLIC "-//W3C//DTD SVG 1.1//EN" "http://www.w3.org/Graphics/SVG/1.1/DTD/svg11.dtd">
<!-- Creator: CorelDRAW -->
<svg xmlns="http://www.w3.org/2000/svg" xml:space="preserve" width="111.574mm" height="79.7276mm" version="1.1" style="shape-rendering:geometricPrecision; text-rendering:geometricPrecision; image-rendering:optimizeQuality; fill-rule:evenodd; clip-rule:evenodd"
viewBox="0 0 13221.48 9447.66"
 xmlns:xlink="http://www.w3.org/1999/xlink"
 xmlns:xodm="http://www.corel.com/coreldraw/odm/2003">
 <defs>
  <style type="text/css">
   <![CDATA[
    .fil0 {fill:black;fill-opacity:0.658824}
   ]]>
  </style>
    <clipPath id="id0">
     <rect x="1236.13" y="2246.3" width="8729.51" height="7150.29"/>
    </clipPath>
     <clipPath id="id1">
      <rect x="1236.13" y="2246.29" width="8729.51" height="7150.29"/>
     </clipPath>
    <clipPath id="id2">
     <rect x="1207.18" y="739.35" width="4319.45" height="5150.18"/>
    </clipPath>
    <clipPath id="id3">
     <path d="M1207.18 5889.53l4319.44 0 0 -5150.17 -4319.44 0 0 5150.17z"/>
    </clipPath>
    <clipPath id="id4">
     <rect x="1207.18" y="739.35" width="4319.45" height="5150.18"/>
    </clipPath>
    <clipPath id="id5">
     <rect x="3415.48" width="7216.88" height="7497.15"/>
    </clipPath>
    <clipPath id="id6">
     <path d="M3415.48 7497.15l7216.87 0 0 -7497.15 -7216.87 0 0 7497.15z"/>
    </clipPath>
    <clipPath id="id7">
     <rect x="3415.48" width="7216.88" height="7497.15"/>
    </clipPath>
    <clipPath id="id8">
     <rect x="3597.58" y="1237.97" width="4295.87" height="4684.32"/>
    </clipPath>
    <clipPath id="id9">
     <path d="M6536.86 3354.19l909.28 -1479.39 5775.35 495.64 -777.11 1925.55 -2797.76 -345.47 -2330.5 3935.08 -1324.68 182.58 545.42 -4713.98z"/>
    </clipPath>
    <clipPath id="id10">
     <path d="M6536.86 3354.19l909.28 -1479.39 5775.35 495.64 -777.11 1925.55 -2797.76 -345.47 -2330.5 3935.08 -1324.68 182.58 545.42 -4713.98z"/>
    </clipPath>
    <clipPath id="id11">
     <path d="M6536.86 3354.19l909.28 -1479.39 5775.35 495.64 -777.11 1925.55 -2797.76 -345.47 -2330.5 3935.08 -1324.68 182.58 545.42 -4713.98z"/>
    </clipPath>
    <clipPath id="id12">
     <rect x="2491.32" y="1668.75" width="2729.3" height="4037.91"/>
    </clipPath>
    <clipPath id="id13">
     <path d="M2491.32 5706.66l2729.29 0 0 -4037.9 -2729.29 0 0 4037.9z"/>
    </clipPath>
    <clipPath id="id14">
     <rect x="2491.32" y="1668.75" width="2729.3" height="4037.91"/>
    </clipPath>
    <clipPath id="id15">
     <path d="M3189.32 5765.75l-2837.35 -2293.75 -351.98 -2363.56 2221.87 1066.98 1335.64 1271.85 672.58 1437.57 -1040.77 880.91z"/>
    </clipPath>
    <clipPath id="id16">
     <path d="M3189.32 5765.75l-2837.35 -2293.75 -351.98 -2363.56 2221.87 1066.98 1335.64 1271.85 672.58 1437.57 -1040.77 880.91z"/>
    </clipPath>
    <clipPath id="id17">
     <path d="M3189.32 5765.75l-2837.35 -2293.75 -351.98 -2363.56 2221.87 1066.98 1335.64 1271.85 672.58 1437.57 -1040.77 880.91z"/>
    </clipPath>
    <clipPath id="id18">
     <rect x="4483.55" y="3034.61" width="1442.66" height="2939.73"/>
    </clipPath>
    <clipPath id="id19">
     <path d="M4483.55 5974.34l1442.65 0 0 -2939.72 -1442.65 0 0 2939.72z"/>
    </clipPath>
    <clipPath id="id20">
     <rect x="4483.55" y="3034.61" width="1442.66" height="2939.73"/>
    </clipPath>
    <clipPath id="id21">
     <rect x="4567.67" y="3130.04" width="4444.53" height="3257.81"/>
    </clipPath>
    <clipPath id="id22">
     <path d="M4567.67 6387.84l4444.52 0 0 -3257.79 -4444.52 0 0 3257.79z"/>
    </clipPath>
    <clipPath id="id23">
     <rect x="4567.67" y="3130.04" width="4444.53" height="3257.81"/>
    </clipPath>
    <clipPath id="id24">
     <path d="M1331.39 3447.05l3088.54 772.12 56.49 85.39 961.54 1574.62 19.67 74.2 27.02 29 57.47 6.71 58.87 3.33 321.54 -226.05 53.91 -48.45 491.72 -346.4 420.21 -275.32 25.06 -1.93 91.72 -53.05 308 -96.34 1503.21 -414.93 251.95 -71.32 211.25 -65.71 106.99 -25.45 515.64 -168.23 -3.64 62.95 -1407.5 829.55 -60.67 2943.28 -2847.68 1412.65 -3281.37 -1715.92 -104.79 -2818.02 -891.21 -1445.63 26.06 -21.05z"/>
    </clipPath>
 </defs>
 <g id="Capa_x0020_1">
  <metadata id="CorelCorpID_0Corel-Layer"/>
  <g id="_2020180606288">
   <g style="clip-path:url(#id0)">
    <image style="clip-path:url(#id1)" x="-1049.75" y="1693.86" width="12733.42" height="8488.95" xlink:href="Correos Macromautopartes_Images\Correos Macromautopartes_ImgID1.png"/>
   </g>
   <g style="clip-path:url(#id2)">
   </g>
   <g style="clip-path:url(#id3)">
    <image x="1207.18" y="739.36" width="4319.44" height="5150.17" xlink:href="Correos Macromautopartes_Images\Correos Macromautopartes_ImgID2.png"/>
   </g>
   <g style="clip-path:url(#id4)">
   </g>
   <g style="clip-path:url(#id5)">
   </g>
   <g style="clip-path:url(#id6)">
    <image x="3415.48" y="0" width="7216.87" height="7497.15" xlink:href="Correos Macromautopartes_Images\Correos Macromautopartes_ImgID3.png"/>
   </g>
   <g style="clip-path:url(#id7)">
   </g>
   <g style="clip-path:url(#id8)">
    <image x="3597.58" y="1237.99" width="4295.87" height="4684.31" xlink:href="Correos Macromautopartes_Images\Correos Macromautopartes_ImgID4.png"/>
   </g>
   <g style="clip-path:url(#id9)">
   </g>
   <g style="clip-path:url(#id10)">
    <image x="4302.34" y="-1826.1" width="9826.89" height="11960.5" xlink:href="Correos Macromautopartes_Images\Correos Macromautopartes_ImgID5.png"/>
   </g>
   <g style="clip-path:url(#id11)">
   </g>
   <g style="clip-path:url(#id12)">
   </g>
   <g style="clip-path:url(#id13)">
    <image x="2491.32" y="1668.77" width="2729.29" height="4037.9" xlink:href="Correos Macromautopartes_Images\Correos Macromautopartes_ImgID6.png"/>
   </g>
   <g style="clip-path:url(#id14)">
   </g>
   <g style="clip-path:url(#id15)">
   </g>
   <g style="clip-path:url(#id16)">
    <image x="-1486.91" y="-117.82" width="6652.61" height="6913.26" xlink:href="Correos Macromautopartes_Images\Correos Macromautopartes_ImgID7.png"/>
   </g>
   <g style="clip-path:url(#id17)">
   </g>
   <g style="clip-path:url(#id18)">
   </g>
   <g style="clip-path:url(#id19)">
    <image x="4483.55" y="3034.62" width="1442.65" height="2939.72" xlink:href="Correos Macromautopartes_Images\Correos Macromautopartes_ImgID8.png"/>
   </g>
   <g style="clip-path:url(#id20)">
   </g>
   <g style="clip-path:url(#id21)">
   </g>
   <g style="clip-path:url(#id22)">
    <image x="4567.67" y="3130.05" width="4444.52" height="3257.79" xlink:href="Correos Macromautopartes_Images\Correos Macromautopartes_ImgID9.png"/>
   </g>
   <g style="clip-path:url(#id23)">
   </g>
   <g style="clip-path:url(#id24)">
    <image x="-1049.75" y="1693.87" width="12733.42" height="8488.95" xlink:href="Correos Macromautopartes_Images\Correos Macromautopartes_ImgID10.png"/>
   </g>
   <path class="fil0" d="M2701.07 6561.26l2822.36 1328.63 1821.96 -732.73 -70.82 475.15 -1740.53 802.67 -2804.53 -1421.37 -28.44 -452.34zm267.36 260.76l0 144.94 -29.07 -14.48 0 -101.13 -37.16 82.61 -25.34 -12.63 -37.17 -119.23 0 100.71 -29.28 -14.6 0 -144.94 35.51 17.7 44.02 130.95 43.19 -87.49 35.29 17.59zm115.87 173.2l-58.76 -29.28 -10.38 24.3 -30.94 -15.42 53.99 -118.03 33.43 16.66 53.79 171.74 -30.94 -15.43 -10.18 -34.55zm-7.89 -26.15l-21.59 -72.64 -21.59 51.12 43.18 21.52zm9.76 -121.18l-47.76 -1.36 0 -19.93 47.76 -1.13 0 22.42zm155.73 215.29c0,7.48 -1.87,13.43 -5.61,17.87 -3.73,4.43 -9.28,6.73 -16.61,6.87 -7.34,0.15 -16.26,-2.39 -26.78,-7.63 -10.38,-5.18 -19.66,-11.57 -27.82,-19.16 -8.18,-7.61 -14.72,-15.95 -19.62,-25.05 -4.92,-9.09 -7.73,-18.25 -8.41,-27.44l31.14 15.51c0.7,6.32 3.08,12.44 7.17,18.43 4.09,5.98 9.52,10.66 16.31,14.05 6.09,3.03 10.76,3.72 14.01,2.1 3.26,-1.64 4.88,-5.01 4.88,-10.13 0,-4.57 -1.32,-8.99 -3.95,-13.28 -2.63,-4.29 -5.95,-8.33 -9.97,-12.13 -4.02,-3.8 -9.55,-8.64 -16.61,-14.52 -9.14,-7.6 -16.61,-14.34 -22.42,-20.2 -5.82,-5.88 -10.76,-12.66 -14.85,-20.37 -4.09,-7.71 -6.13,-16.14 -6.13,-25.28 0,-12.6 4.54,-20.26 13.6,-23.02 9.07,-2.75 21.07,-0.39 36.02,7.06 15.5,7.73 27.86,17.62 37.07,29.68 9.21,12.06 14.43,24.64 15.68,37.72l-31.57 -15.74c-0.83,-5.68 -3.05,-11.1 -6.64,-16.28 -3.6,-5.19 -8.52,-9.34 -14.75,-12.44 -5.39,-2.68 -9.75,-3.45 -13.08,-2.26 -3.32,1.18 -4.98,4.48 -4.98,9.87 0,4.3 1.28,8.5 3.84,12.61 2.56,4.11 5.82,8.06 9.76,11.83 3.95,3.77 9.3,8.44 16.09,14.04 9.41,8 17.06,14.93 22.94,20.78 5.89,5.83 10.9,12.69 15.05,20.57 4.16,7.88 6.23,16.54 6.23,25.95zm176.71 154.91l-22.83 -38.78c-5.55,-1.37 -11.64,-3.71 -18.27,-7.03 -13.71,-6.83 -26.13,-16.2 -37.28,-28.12 -11.14,-11.93 -19.93,-25.24 -26.37,-39.93 -6.43,-14.69 -9.66,-29.25 -9.66,-43.64 0,-14.4 3.22,-25.7 9.66,-33.91 6.43,-8.21 15.23,-12.73 26.37,-13.53 11.15,-0.82 23.57,2.19 37.28,9.02 13.7,6.84 26.13,16.2 37.27,28.13 11.14,11.91 19.93,25.19 26.37,39.82 6.45,14.63 9.66,29.14 9.66,43.54 0,13.43 -2.76,24.21 -8.31,32.31 -5.53,8.11 -13.21,13.03 -23.05,14.77l34.68 55.08 -35.51 -17.7zm-84.51 -142.61c0,9.69 1.84,19.09 5.51,28.19 3.66,9.09 8.76,17.19 15.26,24.33 6.51,7.11 14.04,12.8 22.63,17.08 8.58,4.28 16.13,6.11 22.63,5.47 6.51,-0.64 11.59,-3.67 15.26,-9.11 3.66,-5.44 5.5,-13 5.5,-22.69 0,-9.68 -1.84,-19.09 -5.5,-28.18 -3.67,-9.1 -8.76,-17.21 -15.26,-24.33 -6.51,-7.11 -14.05,-12.81 -22.63,-17.09 -8.59,-4.28 -16.13,-6.1 -22.63,-5.46 -6.51,0.63 -11.6,3.66 -15.26,9.11 -3.67,5.43 -5.51,13 -5.51,22.68zm166.95 10.32l0 85.96c0,11.49 2.52,21.38 7.57,29.64 5.06,8.27 12.36,14.78 21.91,19.53 9.41,4.69 16.65,5.44 21.7,2.2 5.05,-3.24 7.58,-10.58 7.58,-22.08l0 -85.96 29.07 14.48 0 85.96c0,13.57 -2.52,23.77 -7.58,30.58 -5.05,6.84 -12.04,10.31 -20.97,10.42 -8.92,0.13 -19.07,-2.64 -30.42,-8.29 -17.57,-8.76 -31.63,-21.02 -42.15,-36.79 -10.52,-15.76 -15.78,-33.82 -15.78,-54.18l0 -85.96 29.08 14.49zm142.85 94.44l0 38 51.91 25.88 0 22.43 -51.91 -25.88 0 39.45 58.15 28.98 0 23.46 -87.43 -43.57 0 -146.6 87.43 43.57 0 23.25 -58.15 -28.98zm153.26 53.14l0 85.96c0,11.49 2.52,21.37 7.57,29.62 5.06,8.27 12.36,14.78 21.91,19.54 9.41,4.68 16.65,5.43 21.7,2.19 5.05,-3.22 7.58,-10.58 7.58,-22.08l0 -85.96 29.07 14.49 0 85.96c0,13.57 -2.52,23.77 -7.58,30.58 -5.05,6.83 -12.04,10.3 -20.97,10.42 -8.92,0.12 -19.07,-2.64 -30.42,-8.31 -17.57,-8.76 -31.63,-21.02 -42.15,-36.78 -10.52,-15.77 -15.78,-33.82 -15.78,-54.18l0 -85.96 29.08 14.49zm237.75 265.08l-29.28 -14.6 -65.61 -132.36 0 99.67 -29.28 -14.6 0 -146.6 29.28 14.6 65.61 133.19 0 -100.5 29.28 14.6 0 146.6zm115.87 28.26l-58.76 -29.29 -10.38 24.32 -30.94 -15.43 53.99 -118.03 33.43 16.66 53.79 171.74 -30.94 -15.42 -10.18 -34.55zm-7.89 -26.15l-21.59 -72.64 -21.59 51.12 43.18 21.52zm186.47 144.63l-34.26 -74.18 -12.88 -6.41 0 57.1 -29.28 -14.6 0 -146.6 55.86 27.84c17.03,8.5 30,19.1 38.94,31.86 8.92,12.75 13.39,25.92 13.39,39.48 0,11.07 -3.08,18.82 -9.24,23.23 -6.16,4.4 -15.05,4.95 -26.69,1.65l36.56 76.78 -32.4 -16.15zm-47.14 -100.74l24.09 12c16.74,8.34 25.12,5.11 25.12,-9.71 0,-7.05 -2.04,-13.57 -6.13,-19.55 -4.08,-5.98 -10.42,-11.1 -19,-15.38l-24.09 -12 0 44.64zm127.91 17.64l0 38 51.91 25.87 0 22.43 -51.91 -25.87 0 39.45 58.15 28.98 0 23.46 -87.43 -43.57 0 -146.6 87.43 43.57 0 23.25 -58.15 -28.98zm170.7 61.82l0 23.25 -61.68 -30.74 0 39.25 49.43 24.64 0 22.43 -49.43 -24.64 0 61.67 -29.28 -14.59 0 -146.6 90.96 45.33zm109.01 171.44l-58.76 -29.29 -10.38 24.32 -30.94 -15.43 53.99 -118.03 33.43 16.66 53.79 171.74 -30.94 -15.42 -10.18 -34.55zm-7.89 -26.15l-21.59 -72.64 -21.59 51.12 43.18 21.52zm131.02 -31.06c18.27,9.11 33.44,21.38 45.48,36.79 12.04,15.4 20,32.18 23.88,50.3l-30.73 -15.31c-3.19,-9.47 -8.14,-18.17 -14.85,-26.09 -6.72,-7.9 -14.78,-14.21 -24.2,-18.9 -7.75,-3.86 -14.74,-5.4 -20.97,-4.63 -6.22,0.77 -11.07,3.89 -14.53,9.37 -3.46,5.46 -5.19,13.05 -5.19,22.73 0,9.55 1.73,18.79 5.19,27.73 3.46,8.91 8.31,16.86 14.53,23.85 6.23,6.98 13.22,12.4 20.97,16.26 9.42,4.69 17.48,6.42 24.2,5.2 6.71,-1.22 11.66,-4.98 14.85,-11.28l30.73 15.31c-3.87,14.27 -11.84,23.1 -23.88,26.52 -12.04,3.41 -27.21,0.56 -45.48,-8.56 -13.98,-6.97 -26.33,-16.27 -37.07,-27.92 -10.72,-11.65 -19.03,-24.6 -24.91,-38.88 -5.89,-14.29 -8.83,-28.64 -8.83,-43.04 0,-14.53 2.94,-26 8.83,-34.41 5.88,-8.43 14.15,-13.13 24.81,-14.13 10.65,-0.98 23.05,2.05 37.16,9.08zm157.6 78.55c18.27,9.1 33.44,21.37 45.48,36.78 12.04,15.42 20,32.2 23.88,50.31l-30.73 -15.32c-3.19,-9.47 -8.14,-18.17 -14.85,-26.08 -6.72,-7.92 -14.78,-14.22 -24.2,-18.91 -7.75,-3.86 -14.74,-5.4 -20.97,-4.63 -6.22,0.77 -11.07,3.9 -14.53,9.37 -3.46,5.46 -5.19,13.06 -5.19,22.74 0,9.55 1.73,18.78 5.19,27.72 3.46,8.92 8.31,16.86 14.53,23.85 6.23,6.98 13.22,12.4 20.97,16.26 9.42,4.69 17.48,6.42 24.2,5.21 6.71,-1.23 11.66,-4.99 14.85,-11.29l30.73 15.32c-3.87,14.27 -11.84,23.1 -23.88,26.51 -12.04,3.41 -27.21,0.56 -45.48,-8.54 -13.98,-6.98 -26.33,-16.28 -37.07,-27.92 -10.72,-11.65 -19.03,-24.61 -24.91,-38.89 -5.89,-14.29 -8.83,-28.63 -8.83,-43.03 0,-14.53 2.94,-26.01 8.83,-34.42 5.88,-8.43 14.15,-13.13 24.81,-14.11 10.65,-0.98 23.05,2.04 37.16,9.08zm120.64 61.57l0 146.6 -29.28 -14.59 0 -146.6 29.28 14.59zm95.32 45.43c13.7,6.83 26.13,16.2 37.27,28.13 11.14,11.91 19.93,25.19 26.37,39.82 6.45,14.63 9.66,29.14 9.66,43.54 0,14.4 -3.21,25.75 -9.66,34.02 -6.43,8.28 -15.23,12.82 -26.37,13.65 -11.14,0.81 -23.57,-2.2 -37.27,-9.03 -13.71,-6.83 -26.13,-16.21 -37.28,-28.13 -11.14,-11.92 -19.93,-25.23 -26.37,-39.92 -6.43,-14.69 -9.66,-29.26 -9.66,-43.66 0,-14.4 3.22,-25.69 9.66,-33.9 6.43,-8.21 15.23,-12.73 26.37,-13.54 11.15,-0.82 23.57,2.2 37.28,9.03zm0 26.99c-8.59,-4.28 -16.13,-6.1 -22.63,-5.47 -6.51,0.64 -11.6,3.67 -15.26,9.12 -3.67,5.43 -5.51,13 -5.51,22.68 0,9.69 1.84,19.09 5.51,28.19 3.66,9.09 8.76,17.19 15.26,24.32 6.51,7.12 14.04,12.81 22.63,17.09 8.58,4.28 16.13,6.11 22.63,5.47 6.51,-0.64 11.59,-3.67 15.26,-9.11 3.66,-5.44 5.5,-13.01 5.5,-22.7 0,-9.68 -1.84,-19.08 -5.5,-28.17 -3.67,-9.1 -8.76,-17.21 -15.26,-24.33 -6.51,-7.11 -14.05,-12.81 -22.63,-17.09zm31.35 -40.44l-47.77 -1.37 0 -19.93 47.77 -1.11 0 22.42zm188.12 271.51l-29.28 -14.6 -65.61 -132.36 0 99.67 -29.28 -14.6 0 -146.6 29.28 14.6 65.61 133.19 0 -100.5 29.28 14.6 0 146.6zm45.07 3.55c3.32,9.14 4.99,17.51 4.99,25.12 0,8.59 -2.25,14.52 -6.75,17.82 -4.5,3.28 -11.46,2.6 -20.87,-2.1l0 -11.22c3.6,1.8 6.23,2.24 7.89,1.34 1.66,-0.9 2.49,-3.57 2.49,-7.99l0 -2.09 -13.28 -6.62 0 -26.99 25.54 12.73zm285.57 -195.8l0 27.5 -47.87 20.96 0 145.83 -34.63 15.16 0 -145.83 -47.62 20.84 0 -27.5 130.12 -56.96zm52.54 -23l0 101.64c0,13.59 2.99,22.48 8.96,26.65 5.97,4.18 14.61,3.8 25.9,-1.15 11.13,-4.87 19.67,-12 25.66,-21.41 5.97,-9.41 8.96,-20.9 8.96,-34.5l0 -101.64 34.36 -15.05 0 101.64c0,16.04 -2.99,30.9 -8.96,44.56 -5.97,13.66 -14.24,25.51 -24.79,35.53 -10.56,10.03 -22.55,17.98 -35.98,23.85 -20.78,9.1 -37.4,10.14 -49.83,3.15 -12.44,-6.99 -18.66,-22.51 -18.66,-46.58l0 -101.64 34.38 -15.05zm306.88 -8.39c0,8.84 -2.2,17.95 -6.62,27.34 -4.42,9.37 -10.97,18.21 -19.65,26.52 -8.67,8.29 -19.23,15.17 -31.66,20.61 -12.28,5.38 -23.25,8.09 -32.9,8.14 -9.66,0.06 -17.4,-2.57 -23.2,-7.89 -5.82,-5.31 -9.12,-13.02 -9.94,-23.13l36.82 -16.12c0.82,6.67 3.65,11.28 8.47,13.84 4.83,2.55 11.26,2.06 19.27,-1.45 7.2,-3.15 12.73,-7.49 16.58,-13.02 3.84,-5.52 5.77,-11.33 5.77,-17.38 0,-5.4 -1.55,-9.17 -4.67,-11.33 -3.1,-2.16 -7.04,-3.26 -11.78,-3.32 -4.75,-0.04 -11.29,0.36 -19.65,1.24 -10.8,1.13 -19.64,1.42 -26.51,0.91 -6.87,-0.51 -12.73,-3.06 -17.56,-7.66 -4.82,-4.6 -7.24,-12.3 -7.24,-23.1 0,-14.9 5.36,-28.98 16.08,-42.27 10.72,-13.3 24.92,-23.79 42.6,-31.54 18.33,-8.02 32.93,-9.99 43.82,-5.91 10.88,4.08 17.06,13.14 18.53,27.23l-37.32 16.34c-0.98,-5.79 -3.6,-9.75 -7.86,-11.91 -4.25,-2.14 -10.06,-1.61 -17.43,1.62 -6.39,2.8 -11.54,6.72 -15.46,11.79 -3.93,5.07 -5.89,10.8 -5.89,17.18 0,5.07 1.5,8.64 4.54,10.66 3.02,2.03 6.87,3.09 11.54,3.16 4.66,0.09 11,-0.31 19.02,-1.2 11.13,-0.95 20.18,-1.23 27.14,-0.84 6.96,0.4 12.88,2.96 17.8,7.68 4.91,4.74 7.36,12.66 7.36,23.78zm106.8 -175.14c16.2,-7.1 30.89,-9.75 44.06,-8 13.18,1.77 23.57,7.74 31.19,17.89 7.61,10.18 11.41,23.78 11.41,40.8 0,17.03 -3.8,33.99 -11.41,50.9 -7.62,16.93 -18.01,32.04 -31.19,45.33 -13.17,13.3 -27.86,23.49 -44.06,30.58 -16.21,7.1 -30.89,9.75 -44.07,8 -13.18,-1.75 -23.57,-7.77 -31.18,-18.04 -7.62,-10.24 -11.42,-23.88 -11.42,-40.91 0,-17.02 3.8,-33.94 11.42,-50.79 7.61,-16.83 18,-31.89 31.18,-45.18 13.18,-13.3 27.86,-23.49 44.07,-30.58zm0 31.91c-10.16,4.44 -19.07,10.64 -26.77,18.59 -7.69,7.95 -13.7,17.17 -18.04,27.66 -4.34,10.49 -6.51,21.46 -6.51,32.92 0,11.46 2.17,20.54 6.51,27.23 4.34,6.7 10.34,10.65 18.04,11.87 7.7,1.21 16.61,-0.4 26.77,-4.85 10.14,-4.44 19.07,-10.63 26.76,-18.59 7.69,-7.95 13.71,-17.17 18.05,-27.66 4.34,-10.49 6.51,-21.47 6.51,-32.93 0,-11.46 -2.17,-20.52 -6.51,-27.22 -4.34,-6.7 -10.36,-10.65 -18.05,-11.87 -7.69,-1.2 -16.61,0.4 -26.76,4.85zm147.29 52.87l58.18 -25.47 0 26.52 -92.8 40.61 0 -173.33 34.61 -15.14 0 146.81zm112.21 -195.93l0 101.64c0,13.59 2.99,22.48 8.96,26.65 5.97,4.17 14.61,3.79 25.9,-1.15 11.13,-4.87 19.67,-12.02 25.66,-21.42 5.97,-9.4 8.96,-20.9 8.96,-34.5l0 -101.64 34.36 -15.04 0 101.64c0,16.04 -2.99,30.89 -8.96,44.56 -5.97,13.66 -14.24,25.51 -24.79,35.53 -10.56,10.03 -22.55,17.98 -35.98,23.85 -20.78,9.09 -37.4,10.14 -49.83,3.14 -12.44,-6.98 -18.66,-22.5 -18.66,-46.57l0 -101.64 34.38 -15.05zm212.6 -94.78c21.6,-9.46 39.53,-11.74 53.76,-6.84 14.24,4.88 23.65,15.91 28.24,33.05l-36.33 15.91c-3.77,-7.69 -9.62,-12.49 -17.56,-14.42 -7.94,-1.92 -17.47,-0.46 -28.59,4.41 -9.17,4.02 -17.43,9.93 -24.8,17.75 -7.36,7.79 -13.09,16.85 -17.18,27.15 -4.1,10.31 -6.14,21.19 -6.14,32.65 0,11.29 2.04,20.3 6.14,27.01 4.09,6.73 9.82,10.76 17.18,12.13 7.37,1.35 15.63,0.02 24.8,-3.99 11.13,-4.87 20.65,-11.73 28.59,-20.62 7.94,-8.88 13.79,-18.79 17.56,-29.77l36.33 -15.91c-4.59,21.16 -13.99,40.41 -28.24,57.78 -14.23,17.36 -32.16,30.77 -53.76,40.23 -16.53,7.23 -31.14,9.91 -43.82,8.01 -12.69,-1.9 -22.5,-8.02 -29.46,-18.41 -6.96,-10.37 -10.44,-24.07 -10.44,-41.08 0,-17.19 3.48,-34.02 10.44,-50.49 6.96,-16.45 16.73,-31.18 29.33,-44.13 12.61,-12.98 27.25,-23.11 43.95,-30.41zm142.64 -60.72l0 173.33 -34.61 15.14 0 -173.33 34.61 -15.14zm112.69 -51.78c16.2,-7.1 30.89,-9.76 44.06,-8 13.18,1.75 23.57,7.74 31.19,17.89 7.61,10.18 11.41,23.78 11.41,40.8 0,17.03 -3.8,33.99 -11.41,50.9 -7.62,16.93 -18.01,32.03 -31.19,45.33 -13.17,13.28 -27.86,23.49 -44.06,30.58 -16.21,7.09 -30.89,9.75 -44.07,8 -13.18,-1.77 -23.57,-7.77 -31.18,-18.04 -7.62,-10.24 -11.42,-23.88 -11.42,-40.91 0,-17.02 3.8,-33.94 11.42,-50.79 7.61,-16.83 18,-31.9 31.18,-45.18 13.18,-13.3 27.86,-23.5 44.07,-30.58zm0 31.91c-10.16,4.44 -19.07,10.64 -26.77,18.59 -7.69,7.95 -13.7,17.17 -18.04,27.66 -4.34,10.49 -6.51,21.46 -6.51,32.92 0,11.46 2.17,20.54 6.51,27.23 4.34,6.7 10.34,10.65 18.04,11.87 7.7,1.21 16.61,-0.4 26.77,-4.85 10.14,-4.44 19.07,-10.64 26.76,-18.59 7.69,-7.95 13.71,-17.17 18.05,-27.66 4.34,-10.5 6.51,-21.47 6.51,-32.93 0,-11.46 -2.17,-20.54 -6.51,-27.22 -4.34,-6.7 -10.36,-10.65 -18.05,-11.87 -7.69,-1.21 -16.61,0.4 -26.76,4.85zm37.07 -82.52l-56.46 51.24 0 -23.57 56.46 -54.18 0 26.51zm222.42 112.8l-34.61 15.16 -77.58 -83.89 0 117.85 -34.61 15.14 0 -173.33 34.61 -15.14 77.58 84.87 0 -118.83 34.61 -15.16 0 173.33z"/>
   <polygon class="fil0" points="7449.1,7114.38 7367.08,7148.85 7296.37,7624.36 7381.03,7586.44 "/>
   <polygon class="fil0" points="7542.42,7075.45 7479.71,7101.27 7409,7576.78 7474.35,7547.51 "/>
   <polygon class="fil0" points="7623.09,7041.31 7581.08,7058.53 7510.38,7534.04 7555.03,7513.37 "/>
   <polygon class="fil0" points="7694.42,7012.61 7664.75,7024.52 7594.04,7500.03 7626.35,7484.67 "/>
   <polygon class="fil0" points="7756.77,6987.02 7736.76,6995.06 7666.05,7470.57 7688.71,7459.09 "/>
   <polygon class="fil0" points="7808.75,6965.14 7798.03,6969.64 7727.32,7445.15 7740.68,7437.2 "/>
   <path class="fil0" d="M8425.24 5602.42l-1895.38 696.48 -82.04 593.05 1961.25 -762.14 16.18 -527.39zm-145.51 183.9l0 -23.49 9.98 -3.78c2.52,-0.95 4.34,-1.43 5.49,-1.45 1.14,0 2.04,0.39 2.73,1.21 0.69,0.83 1.02,1.93 1.02,3.32 0,1.77 -0.51,3.42 -1.54,4.97 -1.03,1.53 -2.57,2.83 -4.63,3.92 1.02,0.21 1.87,0.55 2.54,1.01 0.66,0.47 1.55,1.4 2.68,2.8l2.87 3.5 -5.68 2.14 -3.39 -3.84c-1.22,-1.35 -2.06,-2.18 -2.51,-2.49 -0.45,-0.31 -0.92,-0.45 -1.42,-0.44 -0.51,0.02 -1.3,0.24 -2.41,0.64l-0.96 0.37 0 9.81 -4.75 1.8zm4.75 -15.36l3.51 -1.33c2.28,-0.85 3.7,-1.49 4.27,-1.9 0.56,-0.4 1.01,-0.91 1.33,-1.49 0.32,-0.59 0.49,-1.24 0.49,-1.96 0,-0.79 -0.23,-1.34 -0.64,-1.67 -0.43,-0.33 -1.02,-0.41 -1.79,-0.25 -0.38,0.09 -1.54,0.5 -3.46,1.23l-3.7 1.4 0 5.96zm4.43 -27.33c15.8,-5.97 28.62,2 28.62,17.8 0,15.81 -12.82,33.45 -28.62,39.45 -15.81,5.97 -28.62,-2 -28.62,-17.8 0,-15.81 12.81,-33.48 28.62,-39.45zm0 6.46c12.24,-4.61 22.16,1.55 22.16,13.78 0,12.23 -9.92,25.9 -22.16,30.54 -12.23,4.63 -22.15,-1.54 -22.15,-13.79 0,-12.22 9.92,-25.89 22.15,-30.53zm-986.96 647.17c-20.32,7.61 -40.54,15.17 -60.75,22.73 3.71,-27.59 7.61,-55.33 11.38,-82.94 3.77,-27.62 7.64,-55.36 11.35,-82.96 -9.56,29.81 -19.21,59.74 -28.82,89.51 -9.65,29.86 -19.62,59.79 -29.44,89.68 -15.68,5.85 -31.34,11.73 -47.01,17.57 -2.5,-25.24 -4.97,-50.54 -7.18,-75.9 -2.2,-25.36 -4.42,-50.73 -6.45,-76.12 -4.55,27.87 -9.04,55.78 -13.52,83.62 -4.49,27.87 -9.09,55.77 -13.64,83.65 -17.69,6.64 -35.4,13.25 -52.98,19.81 8.6,-49.83 17.17,-99.67 25.71,-149.45 8.56,-49.82 17.22,-99.68 25.83,-149.53 27.27,-10.29 54.66,-20.65 82.05,-31 0.84,23.87 1.74,47.73 2.76,71.54 1.01,23.83 2.26,47.59 3.47,71.34 8.25,-27.31 16.45,-54.63 24.39,-81.82 7.96,-27.21 16.16,-54.56 24.06,-81.73 28.46,-10.77 56.93,-21.53 85.51,-32.35 -6.09,49.05 -12.31,98.16 -18.4,147.21 -6.1,49.05 -12.22,98.09 -18.32,147.14zm199.28 -74.54c-22.61,8.48 -45.21,16.95 -67.82,25.37 -0.59,-12.32 -1.14,-24.73 -1.79,-37.05 -0.66,-12.35 -1.2,-24.73 -1.79,-37.05 -9.82,3.67 -19.75,7.39 -29.67,11.13 -3.35,13.79 -6.65,27.61 -9.93,41.4 -3.29,13.84 -6.71,27.66 -10.04,41.51 -22.5,8.39 -45.11,16.85 -67.71,25.31 14.23,-52.12 28.76,-104.31 42.59,-156.3 13.81,-51.96 27.52,-103.96 41.13,-155.89 27.16,-10.27 54.43,-20.58 81.71,-30.9 3.35,45.59 6.94,91.13 10.76,136.56 3.83,45.44 8.26,90.68 12.56,135.92zm-72.59 -87.27c-0.13,-13.94 -0.37,-27.82 -0.37,-41.81 0,-13.98 -0.12,-27.91 -0.12,-41.91 -3,15.13 -6.09,30.26 -9.1,45.4 -2.97,15.07 -5.97,30.19 -9.08,45.31 6.22,-2.32 12.43,-4.65 18.66,-6.99zm241.85 -159.36c-19.73,7.45 -39.58,14.93 -59.44,22.41 1.07,-18.9 2.43,-37.93 3.59,-56.89 0.27,-4.67 -2.64,-5.83 -8.63,-3.58 -6.34,2.38 -9.59,5.87 -9.93,10.58 -2.29,33.31 -4.42,66.63 -6.7,99.89 -2.26,33.3 -4.38,66.62 -6.7,99.88 -0.33,4.7 2.87,5.78 9.57,3.27 6.21,-2.31 9.4,-5.81 9.69,-10.51 1.49,-23.78 2.99,-47.49 4.54,-71.3 20.22,-7.55 40.31,-15.12 60.53,-22.73 -1.2,24.4 -2.49,48.75 -3.71,73.14 -0.69,13.59 -8.38,27.22 -23.21,40.91 -14.84,13.58 -31.45,23.81 -49.64,30.6 -52.74,19.74 -77.83,12.29 -75,-22.5 2.55,-31.12 5.02,-62.22 7.54,-93.31 2.52,-31.11 5.12,-62.27 7.67,-93.38 3.07,-37.65 29.42,-65.86 78.83,-84.55 44.13,-16.7 65.29,-8.02 63.62,25.92 -0.85,17.4 -1.67,34.78 -2.63,52.15zm173.44 118.91c-22.73,8.47 -45.34,16.93 -67.94,25.39 -7.06,-5.33 -10.16,-26.91 -9.09,-64.8 0,-0.12 0,-0.26 0,-0.4 0.37,-5.76 0.6,-11.52 0.96,-17.3 0.95,-23.91 1.42,-36.05 1.43,-36.6 0.33,-9.73 -6.34,-12 -19.74,-6.97 -0.71,22.87 -1.43,45.75 -2.14,68.6 -0.72,22.85 -1.55,45.76 -2.28,68.6 -22.85,8.56 -45.56,17.04 -68.3,25.55 2.26,-47.85 4.49,-95.72 6.71,-143.54 2.2,-47.84 4.42,-95.7 6.7,-143.59 26.2,-9.92 52.51,-19.86 78.83,-29.81 18.06,-6.84 33.61,-8.69 46.65,-5.62 13.51,2.92 19.94,13.13 19.73,30.53 -0.14,11.39 -0.32,22.74 -0.47,34.12 -0.32,22.05 -14.11,42.07 -41.27,60.01 27.03,-4.09 40.42,6.47 40.18,31.69 -0.47,10.49 -1.07,21.05 -1.3,31.46 -0.37,22.76 0.41,40.22 2.26,52.31 1.86,12.12 4.91,18.92 9.09,20.38zm-72.84 -158.08c0.37,-15.62 0.88,-31.31 1.33,-46.95 0.27,-9.97 -6.23,-12.43 -19.39,-7.47 -0.36,12.85 -0.78,25.74 -1.2,38.58 -0.41,12.86 -0.83,25.69 -1.2,38.52 13.28,-4.99 20.22,-12.56 20.45,-22.69zm82.42 105.67c0.21,-30.38 0.53,-60.81 0.72,-91.17 0.18,-30.37 0.57,-60.85 0.83,-91.29 0.32,-36.75 24.87,-64.39 73.68,-82.85 48.08,-18.19 72.65,-9.21 73.56,26.91 0.76,30.1 1.61,60.16 2.39,90.26 0.77,30.03 1.61,60.1 2.39,90.2 0.41,16.28 -6.47,31.56 -20.58,45.73 -13.98,14.08 -32.54,25.43 -55.61,34.08 -51.8,19.39 -77.64,12.11 -77.39,-21.86zm87.78 -30.15c-0.4,-31.94 -0.71,-63.92 -1.07,-95.85 -0.37,-31.95 -0.66,-63.91 -1.07,-95.87 -0.08,-5.65 -3.48,-7.2 -10.42,-4.57 -7.05,2.67 -10.56,6.8 -10.52,12.45 0.2,32.04 0.36,64.06 0.59,96.03 0.24,32.01 0.3,64.05 0.59,96 0.06,5.69 3.83,7.1 11.26,4.31 7.28,-2.73 10.71,-6.83 10.63,-12.5zm319.26 -73.69c-20.35,7.64 -40.55,15.2 -60.77,22.75 -1.79,-25.92 -3.59,-51.87 -5.38,-77.75 -1.79,-25.89 -3.6,-51.83 -5.51,-77.7 -3.95,28.05 -8.13,56.26 -12.21,84.35 -4.05,28.06 -8.37,56.3 -12.55,84.41 -15.68,5.88 -31.34,11.74 -46.89,17.57 -8.13,-23.52 -16.27,-47.07 -24.04,-70.67 -7.79,-23.62 -15.67,-47.23 -23.2,-70.93 1.07,26.14 2.16,52.33 3.22,78.43 1.09,26.13 2.16,52.27 3.22,78.39 -17.81,6.7 -35.51,13.31 -53.22,19.9 -1.3,-46.69 -2.63,-93.48 -4.06,-140.18 -1.43,-46.68 -2.88,-93.42 -4.18,-140.2 27.4,-10.36 54.65,-20.68 82.18,-31.07 6.08,22.27 12.19,44.5 18.4,66.69 6.23,22.21 12.57,44.39 19.02,66.49 2.88,-25.63 5.87,-51.31 8.63,-76.92 2.74,-25.58 5.85,-51.32 8.47,-76.89 28.61,-10.82 57.19,-21.61 85.78,-32.43 3.83,45.98 7.7,91.94 11.59,137.89 3.9,45.93 7.67,91.94 11.49,137.89zm-1575.64 678.37l-12.37 4.68 -2.09 -14.4 -5.5 2.07 -2.11 16 -12.36 4.67 9.25 -60.07 15.88 -6 9.29 53.04zm-15.45 -17.17l-1.78 -16.22 -1.69 17.53 3.47 -1.3zm147.66 -89.4l12.45 -4.7 0 47.44c0,1.14 0.7,1.42 2.09,0.9 1.36,-0.51 2.04,-1.33 2.04,-2.46l0 -47.44 12.44 -4.7 0 46.81c0,3.25 -1.36,6.29 -4.08,9.1 -2.7,2.82 -6.19,5.02 -10.4,6.62 -3.93,1.48 -7.34,1.96 -10.21,1.45 -2.87,-0.51 -4.33,-2.56 -4.33,-6.11l0 -46.89zm188 -63.75l-6.94 2.63 0 49.21 -12.44 4.72 0 -49.22 -6.96 2.63 0 -7.35 26.34 -9.97 0 7.35zm132.64 -10.64l0 -36.37c0,-7.34 4.74,-12.79 14.24,-16.36 9.35,-3.55 14.04,-1.68 14.04,5.58l0 36.38c0,3.28 -1.32,6.32 -3.92,9.08 -2.61,2.75 -6.01,4.93 -10.19,6.51 -9.44,3.58 -14.17,1.98 -14.17,-4.81zm16.18 -5.56l0 -38.46c0,-1.13 -0.68,-1.43 -1.99,-0.95 -1.37,0.53 -2.06,1.35 -2.06,2.48l0 38.46c0,1.14 0.69,1.43 2.06,0.91 1.32,-0.49 1.99,-1.3 1.99,-2.44zm286.83 -120.19l0 20.84 -12.12 4.59 0 -56.57 13.07 -4.93c5.15,-1.97 9.01,-2.76 11.52,-2.41 2.52,0.38 3.77,2.58 3.77,6.62l0 15.69c0,3.71 -1.03,6.72 -3.07,9.02 -2.06,2.32 -6.43,4.7 -13.17,7.15zm4.11 -12.63l0 -13.57c0,-2 -1.37,-2.49 -4.11,-1.45l0 19.55c2.74,-1.03 4.11,-2.55 4.11,-4.54zm178.35 -35.54l-12.36 4.67 -2.09 -14.4 -5.5 2.09 -2.12 15.99 -12.37 4.68 9.28 -60.07 15.88 -6.02 9.28 53.06zm-15.45 -17.19l-1.78 -16.21 -1.69 17.53 3.47 -1.32zm178.38 -44.35l-12.37 4.69c-1.34,-1.1 -2.01,-5.4 -2.01,-12.9l0 -0.08 0.06 -3.42c0.07,-4.73 0.11,-7.13 0.11,-7.24 0,-1.93 -1.27,-2.42 -3.8,-1.46l0 27.16 -12.44 4.7 0 -56.57 15.33 -5.79c3.51,-1.32 6.55,-1.67 9.14,-1.04 2.61,0.62 3.9,2.65 3.9,6.13l0 6.78c0,4.4 -2.56,8.33 -7.69,11.83 5.13,-0.75 7.69,1.41 7.69,6.45l-0.17 6.26c0,9.04 0.75,13.89 2.26,14.53zm-14.22 -31.71l0 -9.31c0,-1.98 -1.27,-2.49 -3.8,-1.53l0 15.27c2.54,-0.96 3.8,-2.43 3.8,-4.43zm172.29 -77.36l-6.96 2.63 0 49.2 -12.44 4.7 0 -49.2 -6.94 2.62 0 -7.36 26.34 -9.95 0 7.36zm157.05 -10.19l-24.32 9.2 0 -56.56 24.15 -9.14 0 7.26 -11.71 4.44 0 15.26 10.56 -3.99 0 6.86 -10.56 3.99 0 19.88 11.87 -4.49 0 7.28zm132.3 -72.72l11.32 -4.28 0 12.99c0,1.29 0.78,1.64 2.35,1.04 1.5,-0.57 2.26,-1.5 2.26,-2.78l0 -6.68c0,-2.05 -1.37,-3.95 -4.1,-5.66 -5.3,-3.12 -8.58,-5.32 -9.87,-6.59 -1.3,-1.28 -1.96,-2.95 -1.96,-5.07l0 -6.34c0,-7.32 4.81,-12.81 14.42,-16.45 8.6,-3.25 12.89,-1.53 12.89,5.14l0 9.79 -11.3 4.28 0 -10.36c0,-1.13 -0.64,-1.45 -1.91,-0.97 -1.47,0.56 -2.23,1.9 -2.23,4.03l0.25 3.58c0,2.12 1.41,4.02 4.21,5.75 5.2,3 8.51,5.21 9.93,6.65 1.41,1.43 2.11,3.39 2.11,5.9l0 7.2c0,7.51 -4.81,13.09 -14.43,16.73 -9.29,3.52 -13.94,1.85 -13.94,-4.99l0 -12.9zm-1572.09 530.27l19.2 -7.26 58.7 -300.37 -19.2 7.25 -58.7 300.38zm318.51 -120.48l51 -19.28 58.78 -300.42 -51 19.29 -58.78 300.41zm-65.03 24.6l49.31 -18.64 59.62 -300.73 -49.3 18.64 -59.63 300.73zm-62.9 23.79l41.65 -15.76 59.63 -300.73 -41.66 15.76 -59.62 300.73zm-63.33 23.95l29.33 -11.09 59 -300.5 -29.34 11.1 -58.99 300.49zm-62.9 23.78l24.22 -9.16 58.59 -300.32 -24.24 9.16 -58.56 300.32z"/>
   <polygon class="fil0" points="6330.09,6937.75 6426.33,6899.94 6508.71,6306.03 6410.1,6342.55 "/>
   <polygon class="fil0" points="6220.59,6980.42 6294.17,6952.14 6377.05,6354.69 6301.07,6382.44 "/>
   <polygon class="fil0" points="6125.94,7017.88 6175.22,6999.03 6258.57,6398.19 6206.71,6417.14 "/>
   <polygon class="fil0" points="6042.25,7049.27 6077.07,7036.25 6160.56,6434.08 6122.56,6448.07 "/>
   <polygon class="fil0" points="5969.08,7077.29 5992.57,7068.49 6076.31,6465.07 6049.92,6474.86 "/>
   <polygon class="fil0" points="5908.1,7101.29 5920.67,7096.35 6004.5,6491.6 5989.02,6497.14 "/>
  </g>
 </g>
</svg>
