<?xml version="1.0" encoding="UTF-8"?>
<!DOCTYPE svg PUBLIC "-//W3C//DTD SVG 1.1//EN" "http://www.w3.org/Graphics/SVG/1.1/DTD/svg11.dtd">
<!-- Creator: CorelDRAW -->
<svg xmlns="http://www.w3.org/2000/svg" xml:space="preserve" width="4.234mm" height="4.2334mm" version="1.1" style="shape-rendering:geometricPrecision; text-rendering:geometricPrecision; image-rendering:optimizeQuality; fill-rule:evenodd; clip-rule:evenodd"
viewBox="0 0 423.34 423.28"
 xmlns:xlink="http://www.w3.org/1999/xlink"
 xmlns:xodm="http://www.corel.com/coreldraw/odm/2003">
 <defs>
  <style type="text/css">
   <![CDATA[
    .fil0 {fill:none}
    .fil1 {fill:black}
   ]]>
  </style>
 </defs>
 <g id="Capa_x0020_1">
  <metadata id="CorelCorpID_0Corel-Layer"/>
  <rect class="fil0" x="0.06" y="0" width="423.27" height="423.27"/>
  <g id="_2693238036480">
   <polygon class="fil1" points="41.54,277.7 145.73,382.3 330.09,198.33 225.54,94.14 "/>
   <polygon class="fil1" points="242.89,76.36 347.06,180.95 423.33,105.09 423.33,104.68 319.35,0.29 "/>
   <path class="fil1" d="M-0 423c14.02,0 116.92,-24.61 125.68,-24.81 -0.86,-3.21 -9.02,-10.25 -11.78,-13.02 -4.34,-4.33 -8.07,-8.07 -12.41,-12.4 -8.61,-8.61 -16.61,-16.61 -25.22,-25.22l-43.41 -43.41c-2.28,-2.28 -3.91,-5.1 -7.23,-6 -0.1,4.55 -2.02,10.45 -2.97,15.23 -1.13,5.76 -2.06,10.17 -3.3,15.72l-19.37 93.91z"/>
  </g>
 </g>
</svg>
