<?xml version="1.0" encoding="UTF-8"?>
<!DOCTYPE svg PUBLIC "-//W3C//DTD SVG 1.1//EN" "http://www.w3.org/Graphics/SVG/1.1/DTD/svg11.dtd">
<!-- Creator: CorelDRAW -->
<svg xmlns="http://www.w3.org/2000/svg" xml:space="preserve" width="15.7815mm" height="3.2388mm" version="1.1" style="shape-rendering:geometricPrecision; text-rendering:geometricPrecision; image-rendering:optimizeQuality; fill-rule:evenodd; clip-rule:evenodd"
viewBox="0 0 292.65 60.06"
 xmlns:xlink="http://www.w3.org/1999/xlink"
 xmlns:xodm="http://www.corel.com/coreldraw/odm/2003">
 <defs>
  <style type="text/css">
   <![CDATA[
    .fil3 {fill:none}
    .fil2 {fill:#E70020}
    .fil0 {fill:#FBB110}
    .fil1 {fill:white}
   ]]>
  </style>
 </defs>
 <g id="Capa_x0020_1">
  <metadata id="CorelCorpID_0Corel-Layer"/>
  <g id="_1942212199648">
   <path class="fil0" d="M83.27 4.9c0,-2.16 1.77,-3.93 3.93,-3.93l118.26 0c2.16,0 3.93,1.77 3.93,3.93l0 50.27c0,2.16 -1.77,3.93 -3.93,3.93l-118.26 0c-2.16,0 -3.93,-1.77 -3.93,-3.93l0 -50.27z"/>
   <polygon class="fil1" points="83.27,6.68 209.38,6.68 209.38,53.39 83.27,53.39 "/>
   <path class="fil2" d="M190.15 18.81c-5.77,0 -10.48,4.7 -10.48,10.48 0,5.77 4.7,10.47 10.48,10.47 5.77,0 10.47,-4.7 10.47,-10.47 0,-5.77 -4.7,-10.48 -10.47,-10.48zm-86.33 0c-5.77,0 -10.47,4.7 -10.47,10.48 0,5.77 4.7,10.47 10.47,10.47 5.77,0 10.47,-4.7 10.47,-10.47 0,-5.77 -4.7,-10.48 -10.47,-10.48z"/>
   <path class="fil2" d="M189.33 9.59c-9.7,-0.22 -14.25,6 -20.87,13.66l-6.24 7.23 9.88 11.83c2.35,3.63 -2.14,7.24 -4.93,3.92l-9.14 -10.9 -8.9 10.32c-2.84,3.28 -7.28,-0.39 -4.87,-3.99l9.67 -11.24 -6.33 -7.55 4.07 -5.04 6.44 7.73 5.55 -6.46c2.72,-3.17 5.5,-7.36 9.1,-9.52l-89.49 0 0 40.89 20.92 0c9.7,0 14.1,-5.8 20.54,-13.62l6.07 -7.38 -10.15 -11.6c-2.43,-3.58 1.97,-7.29 4.84,-4.03l9.39 10.69 8.67 -10.53c2.76,-3.35 7.28,0.22 4.96,3.87l-9.41 11.46 6.51 7.4 -4.1 4.85 -6.48 -7.3 -5.4 6.58c-2.65,3.23 -5.33,7.35 -8.88,9.59l88.65 0 0 -40.89 -20.06 0zm-68.96 19.69c0,9.11 -7.43,16.55 -16.55,16.55 -9.12,0 -16.55,-7.43 -16.55,-16.55 0,-9.12 7.43,-16.55 16.55,-16.55 9.11,0 16.55,7.43 16.55,16.55zm69.78 16.55c-9.11,0 -16.55,-7.43 -16.55,-16.55 0,-9.12 7.43,-16.55 16.55,-16.55 9.11,0 16.55,7.43 16.55,16.55 0,9.11 -7.43,16.55 -16.55,16.55z"/>
  </g>
  <rect class="fil3" x="0.01" width="292.65" height="60.06"/>
 </g>
</svg>
