<?xml version="1.0" encoding="UTF-8"?>
<!DOCTYPE svg PUBLIC "-//W3C//DTD SVG 1.1//EN" "http://www.w3.org/Graphics/SVG/1.1/DTD/svg11.dtd">
<!-- Creator: CorelDRAW -->
<svg xmlns="http://www.w3.org/2000/svg" xml:space="preserve" width="4.2336mm" height="4.2334mm" version="1.1" style="shape-rendering:geometricPrecision; text-rendering:geometricPrecision; image-rendering:optimizeQuality; fill-rule:evenodd; clip-rule:evenodd"
viewBox="0 0 423.36 423.34"
 xmlns:xlink="http://www.w3.org/1999/xlink"
 xmlns:xodm="http://www.corel.com/coreldraw/odm/2003">
 <defs>
  <style type="text/css">
   <![CDATA[
    .fil0 {fill:none}
    .fil1 {fill:black}
   ]]>
  </style>
 </defs>
 <g id="Capa_x0020_1">
  <metadata id="CorelCorpID_0Corel-Layer"/>
  <rect class="fil0" x="0.02" y="0.01" width="423.33" height="423.33"/>
  <g id="_2693524046736">
   <path class="fil1" d="M195.14 219.11c-3.97,-2.66 -57.92,-57.5 -67.16,-66.79 -16.6,-16.68 -34.68,6.16 -42.6,14.08 -11.7,11.7 -20.06,16.66 -20.06,30.39 0,9.08 7.76,14.78 12.61,19.64l96.75 96.74c12.55,12.55 21.58,20.2 38.86,2.89l198.86 -198.86c7.85,-7.85 10.96,-9.62 10.96,-21.29 0,-10.15 -14.52,-21.55 -20.47,-27.49 -4.19,-4.2 -7.82,-7.78 -11.98,-12 -17.65,-17.88 -31.74,-0.92 -42.59,9.93l-109.15 109.15c-6.41,6.41 -40.1,40.99 -44.03,43.61z"/>
   <path class="fil1" d="M-0 101.7l0 219.94c0,14.81 7.68,33.64 17.57,43.63 13.6,13.73 27.64,25.83 54.37,25.83l214.98 0c10.71,0 22.14,-3.2 29.51,-6.88 25,-12.48 42.43,-35.99 42.43,-68.36l0 -77.73c0,-6.77 -5.05,-9.92 -8.27,-9.92 -5.7,0 -24.28,18.78 -24.81,23.97 -3.06,29.78 6.64,72.63 -8.89,90.34 -9.22,10.51 -18.51,15.51 -34.1,15.51l-208.37 0c-16.56,0 -30.67,-9.05 -36.96,-21.75 -1.99,-4.02 -4.38,-9.89 -4.38,-15.46l0 -218.29c0,-9.27 6.04,-20.26 12.59,-26.28 8.07,-7.42 17.08,-10.93 28.75,-10.93l211.68 0c16.26,0 10.43,7.34 25.01,-7.24 7.67,-7.67 17.62,-15.56 -3.7,-22.34 -5.5,-1.75 -12.77,-3.5 -19.66,-3.5l-215.81 0c-28.03,0 -52.5,17.1 -64.79,41.05 -3.47,6.76 -7.15,18.58 -7.15,28.41z"/>
  </g>
 </g>
</svg>
