<?xml version="1.0" encoding="UTF-8"?>
<!DOCTYPE svg PUBLIC "-//W3C//DTD SVG 1.1//EN" "http://www.w3.org/Graphics/SVG/1.1/DTD/svg11.dtd">
<!-- Creator: CorelDRAW -->
<svg xmlns="http://www.w3.org/2000/svg" xml:space="preserve" width="15.7815mm" height="3.2388mm" version="1.1" style="shape-rendering:geometricPrecision; text-rendering:geometricPrecision; image-rendering:optimizeQuality; fill-rule:evenodd; clip-rule:evenodd"
viewBox="0 0 604.55 124.07"
 xmlns:xlink="http://www.w3.org/1999/xlink"
 xmlns:xodm="http://www.corel.com/coreldraw/odm/2003">
 <defs>
  <style type="text/css">
   <![CDATA[
    .fil2 {fill:none}
    .fil0 {fill:#343084}
    .fil1 {fill:#FF9400}
   ]]>
  </style>
 </defs>
 <g id="Capa_x0020_1">
  <metadata id="CorelCorpID_0Corel-Layer"/>
  <g id="_1942268513152">
   <g>
    <path class="fil0" d="M189.39 37.49c11.12,-0.57 21.69,-1.42 32.65,-1.9 -3.15,-23.15 -14.33,-35.42 -48.14,-35.42 -33.2,0 -47.62,17.07 -49.52,32.75 -2.15,17.65 11.14,28.95 32.38,35.12 18.34,5.37 33.71,9.11 34.19,18.12 0.52,9.69 -10.55,15.13 -16.03,15.13 -9.8,0 -20.46,-10.85 -21.74,-20.8 -10.66,0.85 -21.74,0.89 -32.4,1.74 0,27.02 21.96,41.34 51.08,41.34 27.16,0 53.83,-11.42 53.83,-40.62 0,-35.46 -38.36,-35.45 -63.48,-44.18 -8.78,-4.85 -4.2,-15.46 4.06,-16.39 16.69,-2.02 19.55,7.47 23.11,15.12z"/>
    <path class="fil0" d="M293.93 3.04c21.76,0 37.17,11.99 37.17,36.3 0,22.28 -15.33,36.5 -37.59,36.5 -10.09,0 -17.7,0 -27.79,0 0,14.22 0,28.44 0,42.66 0,2.93 0,2.93 -2.59,2.93 -9.55,0 -19.44,0 -29,0 -3.63,0 -3.63,0 -3.63,-2.73 0,-36.36 0,-74.23 0,-110.59 0,-5.06 0,-5.06 5.09,-5.06 20.13,0 38.2,0 58.33,0zm-25.42 50.25c-2.05,0 -2.79,-0.84 -2.79,-2.12 0,-7.64 0,-15.28 0,-22.92 0,-1.68 1.37,-2.63 2.62,-2.63 4.06,0 8.12,0 12.18,0 10.49,1.55 14.33,7.23 14.33,14.64 0,10.6 -9.45,13.02 -17.66,13.02 -2.9,0 -5.79,0 -8.68,0z"/>
    <path class="fil1" d="M339.01 6.31c0,-1.48 1.06,-2.62 2.24,-2.62 30.81,0 61.62,0 92.43,0 2.04,-0.09 2.26,0.75 2.26,1.54 0,7.04 0,14.08 0,21.12 0.09,0.98 -0.71,1.43 -1.43,1.43 -19.51,0 -39.02,0 -58.53,0 -1.23,0 -1.63,1.25 -1.63,2.62 0,4.75 0,9.51 0,14.26 0,1.54 1.1,2.95 2.94,2.95 17.27,0 34.53,0 51.79,0 0.39,0.39 0.79,0.79 1.18,1.18 0,6.6 0,13.2 0,19.8 -0.59,0.85 -1.18,1.7 -1.78,2.55 -17.4,0 -34.79,0 -52.19,0 -1.21,0 -1.95,0.74 -1.95,1.95 0,6.34 0,12.67 0,19 0,1.05 1.25,2.21 2.71,2.21 19.23,0 38.46,0 57.69,0 0.76,0 1.18,0.73 1.18,1.18 0,7.69 0,15.38 0,23.07 0,0.54 -0.62,1.14 -1.14,1.14 -31.62,0 -63.24,0 -94.86,0 -0.5,0 -0.94,-0.5 -0.94,-0.95 0,-37.48 0,-74.97 0,-112.45z"/>
    <path class="fil0" d="M486.12 69.13l0 50.58 -32.91 0c-0.5,0 -0.94,-0.5 -0.94,-0.95l0 -45.18c0,-1.21 0.84,-1.91 1.46,-1.91 3.15,0 6.3,0 9.45,0 0.95,0 1.18,0.81 1.18,1.52 0,7.04 0,14.08 0,21.11 0,2.67 2.24,1.52 3.43,0 6.11,-8.39 12.22,-16.79 18.33,-25.18z"/>
   </g>
   <path class="fil0" d="M450.82 6.31c0,-1.48 1.06,-2.62 2.24,-2.62 10.07,0 20.14,0 30.21,0 2.09,0 2.84,1.28 2.84,2.29l0 43.18 -18.5 -25.89c-0.4,-0.56 -1.31,-0.52 -1.31,0.64 0,6.22 0,12.43 0,18.65 0,1.04 -0.51,3.01 -1.99,3.01l-0.19 0 0 0 -0.19 0 -0 0 -0.18 0 -0.01 0 -0.18 0 -0.02 0 -0.17 0 -0.02 0 -0.16 0 -0.03 0 -0.15 0 -0.05 0 -0.14 0 -0.06 0 -0.13 0 -0.08 0 -0.11 0 -0.1 0 -0.1 0 -0.11 0 -0.08 0 -0.13 0 -0.06 0 -0.15 0 -0.03 0 -0.18 0 -0.01 0 -0.19 0 -0.01 0 -0.18 0 -0.03 0 -0.15 0 -0.06 0 -0.13 0 -0.09 0 -0.1 0 -0.11 0 -0.07 0 -0.15 0 -0.04 0 -0.18 0 -0.01 0 -0.19 0 -0.02 0 -0.17 0 -0.05 0 -0.14 0 -0.08 0 -0.11 0 -0.11 0 -0.08 0 -0.15 0 -0.04 0 -0.18 0 -0.02 0 -0.19 0 -0.02 0 -0.17 0 -0.05 0 -0.13 0 -0.09 0 -0.1 0 -0.12 0 -0.07 0 -0.16 0 -0.03 0 -0.19 0 0 0 -0.19 0 -0.03 0 -0.15 0 -0.07 0 -0.12 0 -0.1 0 -0.09 0 -0.13 0 -0.06 0 -0.16 0 -0.02 0 -0.19 0 -0.01 0 -0.18 0 -0.04 0 -0.15 0 -0.07 0 -0.11 0 -0.11 0 -0.08 0 -0.13 0 -0.05 0 -0.16 0 -0.03 0 -0.19 0 -0 0 -0.18 0 -0.03 0 -0.16 0 -0.06 0 -0.13 0 -0.08 0 -0.1 0 -0.11 0 -0.08 0 -0.13 0 -0.06 0 -0.16 0 -0.03 0 -0.18 0 -0.01 0 -0.19 0 -0.01 0 -0.18 0 -0.03 0 -0.16 0 -0.04 0 -0.15 0 -0.06 0 -0.13 0c-0.66,0 -1.44,-1.48 -1.44,-2.33l0 -36.93z"/>
  </g>
  <rect class="fil2" x="0.02" width="604.55" height="124.07"/>
 </g>
</svg>
