<?xml version="1.0" encoding="utf-8"?>
<!-- Generator: Adobe Illustrator 21.1.0, SVG Export Plug-In . SVG Version: 6.00 Build 0)  -->
<svg version="1.1" id="Layer_1" xmlns="http://www.w3.org/2000/svg" xmlns:xlink="http://www.w3.org/1999/xlink" x="0px" y="0px"
	 viewBox="0 0 150 41.6" style="enable-background:new 0 0 150 41.6;" xml:space="preserve">
<style type="text/css">
	.st0{fill:#009733;}
	.st1{fill:#FFFFFF;}
	.st2{fill:#052B89;}
</style>
<g>
	<g>
		<g>
			<path class="st0" d="M104.8,0c-4.4,0-8,3.6-8,8s3.6,8,8,8s8-3.6,8-8S109.2,0,104.8,0z M104.8,14.6c-3.7,0-6.6-3-6.6-6.6
				s3-6.6,6.6-6.6c3.7,0,6.6,3,6.6,6.6S108.5,14.6,104.8,14.6z"/>
			<circle class="st0" cx="104.8" cy="8" r="5.8"/>
		</g>
		<polygon class="st1" points="104.8,3.2 106.4,6.3 109.8,6.8 107.3,9.3 107.9,12.7 104.8,11.1 101.7,12.7 102.3,9.3 99.8,6.8 
			103.3,6.3 		"/>
	</g>
	<path class="st1" d="M51.2,40.7c1.9,0,3.6,0,5.3,0c1.6,0,3.7,0.5,4.8-0.3c1-0.8,1-3,1.4-4.6c0.9-3.8,1.9-7.6,2.6-11.5
		c0.6-3.2-0.9-5.2-4.1-5.9c-2.5-0.6-4.7,0.2-6.8,1.5c-0.9,0.5-1.7,1.2-2.8,2c0.1-1.1,0.2-2,0.3-2.9c-3.5,0-6.8,0-10.3,0
		c-1.7,7.3-3.3,14.6-5,22c2.2,0,4.2,0,6.2,0c4.4,0,4.3,0,5.4-4.2c0.7-2.7,1.3-5.4,2.1-8.1c0.4-1.3,1.4-2.3,2.9-1.7
		c1.4,0.5,0.8,1.8,0.6,2.8C52.9,33.3,52.1,36.9,51.2,40.7z"/>
	<path class="st1" d="M68.4,19.3c0,0.4,0,0.6,0,0.8c1.3,6.6,2.5,13.1,3.8,19.7c0.2,0.9,0.6,1.2,1.5,1.2c2.4-0.1,4.8,0.1,7.2-0.1
		c0.7,0,1.6-0.5,2-1.1c4.4-6.5,8.8-13,13.1-19.5c0.2-0.3,0.3-0.6,0.6-1.1c-3.5,0-6.8,0-10.1,0c-0.5,0-1.1,0.5-1.3,0.9
		c-1.4,2.6-2.8,5.2-4.1,7.8c-0.3,0.5-0.6,1.1-0.9,1.6c-0.2,0-0.4-0.1-0.6-0.1c0-3.4,0-6.7,0-10.2C75.7,19.3,72.1,19.3,68.4,19.3z"/>
	<path class="st1" d="M98.7,19.2c-1.8,7.3-3.6,14.5-5.4,21.9c3.3,0,6.4-0.1,9.4,0c1.1,0,1.5-0.4,1.7-1.4c0.9-3.9,1.8-7.7,2.7-11.6
		c0.7-2.9,1.3-5.9,2-8.9c-3,0-5.9,0-8.7,0C99.9,19.2,99.4,19.2,98.7,19.2z"/>
	<path class="st0" d="M116.2,41.4c-1.2-0.1-2.3-0.5-3.3-1.3c-3-2.5-2.6-7-1.8-10.4c0.8-3.4,2.6-6.5,5.2-8.8c2.4-2.2,5.4-2.8,8.4-2.1
		c1.5,0.4,2.8,1.7,4.3,2.7c0.1-0.5,0.4-1.3,0.6-2.1c3.3,0,6.5,0,9.8,0c-1.7,7.3-3.4,14.4-5.1,21.6c-3.3,0-6.4,0-9.6,0
		c0.1-0.9,0.2-1.7,0.3-2.2c-1,0.8-2.2,1.5-3,1.7C120.2,41,118.1,41.6,116.2,41.4z M127,29.4c0-1.6-1.1-2.8-2.5-2.8
		c-1.8,0-3.5,1.8-3.6,3.8c0,1.7,1.1,2.8,2.7,2.8C125.4,33.2,127,31.4,127,29.4z"/>
	<path class="st2" d="M51.2,40.7c0.9-3.8,1.7-7.4,2.6-10.9c0.2-1,0.9-2.3-0.6-2.8c-1.5-0.6-2.5,0.4-2.9,1.7
		c-0.8,2.7-1.4,5.4-2.1,8.1c-1,4.2-1,4.2-5.4,4.2c-2,0-4,0-6.2,0c1.7-7.4,3.4-14.7,5-22c3.5,0,6.8,0,10.3,0c-0.1,1-0.2,1.8-0.3,2.9
		c1-0.7,1.9-1.4,2.8-2c2.1-1.3,4.3-2.1,6.8-1.5c3.2,0.7,4.7,2.7,4.1,5.9c-0.7,3.9-1.7,7.6-2.6,11.5c-0.4,1.6-0.4,3.8-1.4,4.6
		c-1,0.8-3.1,0.3-4.8,0.3C54.8,40.7,53.1,40.7,51.2,40.7z"/>
	<path class="st0" d="M31.2,18.8c-1.6-0.5-3.4-0.9-5.2-0.8c-7.1,0.2-13.4,5.4-15.1,12.3c-1.1,4.3,0.3,8,3.7,9.8
		c2.8,1.5,5.8,1.8,8.9,1.2c4.5-0.8,8.1-3,10.8-7c-2.5-0.2-4.8-0.2-7-0.5c-1.3-0.1-2.3-0.3-3.3,0.9c-0.5,0.6-2.3,0.7-3,0.3
		c-0.7-0.5-0.9-2-0.8-3c0.1-1.3,1.4-0.8,2.2-0.9c4,0,8.1,0,12.1,0c0.5,0,1.3-0.3,1.5-0.7C38.1,25.9,35.8,20.3,31.2,18.8z M25.5,26.7
		c-1.1,0-2.3,0-3.6,0c0.6-2,1.9-3,3.5-2.8c1,0.1,1.7,0.6,1.7,1.7C27.2,26.9,26.3,26.7,25.5,26.7z"/>
	<path class="st0" d="M68.4,19.3c3.7,0,7.3,0,11.2,0c0,3.5,0,6.8,0,10.2c0.2,0,0.4,0.1,0.6,0.1c0.3-0.5,0.6-1.1,0.9-1.6
		c1.4-2.6,2.7-5.2,4.1-7.8c0.2-0.4,0.9-0.9,1.3-0.9c3.3-0.1,6.6,0,10.1,0c-0.2,0.5-0.4,0.8-0.6,1.1c-4.4,6.5-8.7,13-13.1,19.5
		c-0.4,0.6-1.3,1-2,1.1c-2.4,0.1-4.8,0-7.2,0.1c-0.9,0-1.3-0.3-1.5-1.2c-1.2-6.6-2.5-13.1-3.8-19.7C68.4,19.9,68.4,19.7,68.4,19.3z"
		/>
	<path class="st2" d="M98.7,19.2c0.7,0,1.2,0,1.7,0c2.8,0,5.7,0,8.7,0c-0.7,3.1-1.3,6-2,8.9c-0.9,3.9-1.8,7.7-2.7,11.6
		c-0.2,1-0.6,1.4-1.7,1.4c-3.1-0.1-6.1,0-9.4,0C95.1,33.7,96.9,26.5,98.7,19.2z"/>
</g>
</svg>
