<svg xmlns="http://www.w3.org/2000/svg" viewBox="0 0 161.895 40"><defs><style>.a{fill:#343695;}</style></defs><g transform="translate(-248.687 -524.4)"><path class="a" d="M410.582,564.4H254.889c-2.668,0-6.329-2.373-6.2-5.147V524.427c2.746,0,5.492.027,8.212-.027.654,0,.811.187.811.853-.026,9.653,0,19.28-.026,28.933a6.513,6.513,0,0,0,1.909,5.093,5.816,5.816,0,0,0,4.106,1.547H409.535c.34,0,.68.027,1.02.027C410.582,562.053,410.582,563.227,410.582,564.4Z" transform="translate(0)"/><path class="a" d="M440.2,558.838c-.366-.027-.732-.053-1.1-.053H294.371a5.2,5.2,0,0,1-5.545-5.547c-.026-9.36,0-18.693-.026-28.053,0-.587.183-.72.706-.693a22.667,22.667,0,0,0,2.694,0c.549-.027.706.133.706.72-.026,2.907,0,5.813,0,8.693v19.013c0,1.733.34,2.08,2.014,2.08h144.5a7.752,7.752,0,0,0,.785-.053C440.2,556.251,440.2,557.531,440.2,558.838Z" transform="translate(-29.622 -0.065)"/><path class="a" d="M424.772,550.4a24.736,24.736,0,0,1-.942,8.187.84.84,0,0,0,.131.747c.366.613.706,1.253,1.125,1.84.262.373.157.587-.157.853-1.177,1.04-1.2,1.067-1.909-.293-.366-.72-.628-.907-1.438-.48a3.657,3.657,0,0,1-4.838-1.6,9.588,9.588,0,0,1-1.229-4.133,45.641,45.641,0,0,1,.131-11.173,8.824,8.824,0,0,1,1.072-3.253,3.631,3.631,0,0,1,3.374-2,3.586,3.586,0,0,1,3.3,2.133,15.538,15.538,0,0,1,1.36,6.96C424.8,548.938,424.772,549.658,424.772,550.4Zm-2.929,5.147a.828.828,0,0,0,.1-.24,55.731,55.731,0,0,0,.052-9.573,8.576,8.576,0,0,0-.6-2.667c-.262-.587-.628-1.093-1.308-1.12-.732-.027-1.125.48-1.412,1.12a6.885,6.885,0,0,0-.549,2.187,56.519,56.519,0,0,0-.131,9.173,8.6,8.6,0,0,0,.758,3.52,1.377,1.377,0,0,0,1.517.907c.471-.08.785-.32.418-.907-.366-.56-.68-1.147-.994-1.733-.1-.213-.288-.427-.026-.64a12.216,12.216,0,0,1,1.255-1.013c.392-.08.445.667.758.96C421.712,555.5,421.764,555.5,421.843,555.551Z" transform="translate(-122.99 -10.778)"/><path class="a" d="M471.292,549.247v8.133a9.172,9.172,0,0,1-.183,1.68,3.77,3.77,0,0,1-3.74,3.28c-2.668.107-3.975-.747-4.6-2.96a11.308,11.308,0,0,1-.34-3.12c0-5.093,0-10.213-.026-15.307,0-.613.131-.827.785-.827,1.831.027,1.831,0,1.831,1.84v14.107a7.562,7.562,0,0,0,.288,2.293,1.477,1.477,0,0,0,1.517,1.173,1.585,1.585,0,0,0,1.7-1.253,8.2,8.2,0,0,0,.183-2.4c0-4.96.026-9.947,0-14.907,0-.667.157-.88.837-.88,1.8.027,1.8,0,1.8,1.84v7.253C471.318,549.247,471.292,549.247,471.292,549.247Z" transform="translate(-157.819 -11.513)"/><path class="a" d="M704.406,552.1c0,3.2-.026,6.293.026,9.36,0,.667-.183.853-.837.853-1.6-.053-1.6,0-1.6-1.6V541.385c0-1.013,0-1.04,1.046-1.013a23.975,23.975,0,0,1,3.086.08,3.075,3.075,0,0,1,2.694,2.267,10.718,10.718,0,0,1-.262,7.333,2.318,2.318,0,0,1-1.177,1.36c-.471.213-.471.427-.314.853.968,3.067,1.883,6.133,2.851,9.2.235.72.078.88-.628.853-1.648-.027-1.648,0-2.119-1.573l-2.354-7.84A1.263,1.263,0,0,0,704.406,552.1Zm0-5.707c0,1.013.026,2.053,0,3.067,0,.507.209.613.628.533a1.724,1.724,0,0,0,1.412-1.28,8.1,8.1,0,0,0,0-4.667,1.551,1.551,0,0,0-1.465-1.147c-.392-.027-.575.107-.575.533C704.432,544.425,704.406,545.411,704.406,546.4Z" transform="translate(-334.755 -11.704)"/><path class="a" d="M617.369,555.162c-.235.933-.471,1.84-.68,2.773-.314,1.253-.628,2.507-.915,3.76-.1.427-.288.587-.706.56a9.858,9.858,0,0,0-1.255,0c-.628.053-.68-.187-.523-.747.968-3.253,1.909-6.533,2.9-9.787a2.315,2.315,0,0,0,0-1.333c-.889-3.093-1.752-6.187-2.641-9.28-.209-.667-.052-.827.6-.827,1.491.027,1.491,0,1.909,1.413.288.987.575,1.947.837,2.933.262.96.471,1.92.706,2.88.288-.08.235-.32.288-.507.5-2.027.968-4.053,1.438-6.107.1-.427.288-.613.732-.613,1.831-.027,1.831-.053,1.308,1.707l-2.511,8.48a2,2,0,0,0-.026,1.173c.942,3.253,1.857,6.507,2.825,9.733.183.64.157.907-.6.88-1.543-.053-1.569,0-1.988-1.493-.523-1.84-.994-3.707-1.491-5.573A.726.726,0,0,0,617.369,555.162Z" transform="translate(-269.19 -11.642)"/><path class="a" d="M378.274,562.221c-1.125,0-1.125,0-1.308-1.173-.131-.853-.288-1.707-.392-2.533-.052-.427-.235-.587-.654-.587-.706.027-1.412.027-2.145,0-.523-.027-.758.16-.811.693-.1.96-.314,1.92-.392,2.88-.052.587-.288.747-.863.747-1.648-.027-1.622,0-1.334-1.653q1.687-9.72,3.348-19.44c.078-.507.131-.96.837-.88.6.08,1.229-.24,1.412.853,1.1,6.827,2.3,13.653,3.478,20.48.078.507-.026.693-.549.64A2.479,2.479,0,0,0,378.274,562.221Zm-3.452-6.613c1.308,0,1.282,0,1.1-1.333-.34-2.64-.654-5.307-.994-7.947-.026-.187.131-.507-.157-.507-.314,0-.262.32-.288.56-.1,2.613-.575,5.173-.889,7.733C373.41,555.608,373.384,555.608,374.822,555.608Z" transform="translate(-89.752 -11.635)"/><path class="a" d="M332.8,551.227c0-3.387.026-6.773,0-10.16,0-.613.157-.8.758-.773,1.125.08,2.275-.08,3.4.107a3.006,3.006,0,0,1,2.563,2.107,11.472,11.472,0,0,1-.052,7.653,3.547,3.547,0,0,1-3.531,2.347c-.706.027-.785.293-.785.907.026,2.667,0,5.307.026,7.973,0,.587-.1.853-.758.853-1.569-.027-1.569,0-1.569-1.627C332.8,557.493,332.8,554.373,332.8,551.227Zm4.812-4.8a5.468,5.468,0,0,0-.418-2.427,1.785,1.785,0,0,0-1.36-1.12c-.5-.107-.732,0-.706.587.026,1.84,0,3.707,0,5.547,0,1.093.392,1.307,1.308.747a1.78,1.78,0,0,0,.785-.96A6.118,6.118,0,0,0,337.612,546.427Z" transform="translate(-62.114 -11.653)"/><path class="a" d="M661.526,551.217c0-3.387.026-6.773-.026-10.16,0-.747.209-.933.889-.88,1.1.08,2.2-.08,3.322.107a2.882,2.882,0,0,1,2.432,1.947,11.256,11.256,0,0,1-.1,8.107,3.551,3.551,0,0,1-3.478,2.107c-.628.027-.732.24-.732.8.026,2.72,0,5.413.026,8.133,0,.587-.157.773-.758.773-1.6-.027-1.6,0-1.6-1.6C661.526,557.457,661.526,554.337,661.526,551.217Zm2.328-4.907c0,.853-.026,1.707,0,2.56.026.347,0,.827.209,1.013.314.293.811-.027,1.2-.267A1.682,1.682,0,0,0,666,548.6a7.73,7.73,0,0,0,0-4.427,1.77,1.77,0,0,0-1.491-1.387c-.445-.08-.68,0-.68.533C663.88,544.31,663.854,545.3,663.854,546.31Z" transform="translate(-304.847 -11.563)"/><path class="a" d="M745.326,551.253c0-3.36.026-6.72-.026-10.08,0-.747.209-.907.889-.88,1.386.053,2.8.027,4.185,0,.471,0,.628.16.628.64.026,1.973.052,1.973-1.857,1.973-1.648,0-1.648,0-1.648,1.68,0,1.467.026,2.96,0,4.427,0,.48.131.667.628.64.68-.027,1.36,0,2.066-.027.366,0,.549.107.5.507v.08c.078,2.053.078,2.053-1.909,2.053a3.783,3.783,0,0,1-.549,0c-.575-.08-.706.187-.706.747.026,1.973.026,3.92,0,5.893,0,.507.131.72.68.693.732-.027,1.465,0,2.223-.027.471-.027.654.107.654.64.052,2.027.078,2.027-1.962,2.027-.994,0-2.014-.027-3.008,0-.6.027-.759-.187-.759-.773C745.352,558.079,745.326,554.666,745.326,551.253Z" transform="translate(-366.731 -11.652)"/><path class="a" d="M780.369,557.67a13.058,13.058,0,0,0,1.255.8,1.842,1.842,0,0,0,2.8-1.333,5.351,5.351,0,0,0-.6-4.187c-.706-1.173-1.674-2.133-2.432-3.253a8.261,8.261,0,0,1-.706-8.613,3.568,3.568,0,0,1,5.048-1.467c.235.133.445.267.445.587-.026.827,0,1.653,0,2.48-.392.027-.549-.267-.811-.4a1.874,1.874,0,0,0-2.929,1.067,4.1,4.1,0,0,0,.5,3.84c.915,1.307,1.935,2.56,2.772,3.92a8.34,8.34,0,0,1,.34,8.507,3.454,3.454,0,0,1-5,1.44,1.13,1.13,0,0,1-.654-1.173C780.421,559.217,780.369,558.5,780.369,557.67Z" transform="translate(-392.201 -10.79)"/><path class="a" d="M817.272,557.616a14.883,14.883,0,0,0,1.334.853,1.85,1.85,0,0,0,2.72-1.307,5.45,5.45,0,0,0-1.072-4.987c-.654-.853-1.36-1.653-1.962-2.533a8.3,8.3,0,0,1-.758-8.533,3.554,3.554,0,0,1,5.074-1.52c.235.133.445.267.418.613-.026.827,0,1.653,0,2.48-.418-.027-.6-.32-.889-.453a1.812,1.812,0,0,0-2.772.987,4.08,4.08,0,0,0,.445,3.973c.889,1.307,1.909,2.507,2.72,3.867a8.427,8.427,0,0,1,.366,8.587,3.481,3.481,0,0,1-5.021,1.44,1.13,1.13,0,0,1-.654-1.173A16.286,16.286,0,0,0,817.272,557.616Z" transform="translate(-419.453 -10.763)"/><path class="a" d="M581.107,551.254c0-3.387.026-6.773-.026-10.133,0-.64.157-.853.785-.827,1.386.053,2.8.053,4.185,0,.6-.027.758.187.732.773-.026,1.84,0,1.84-1.831,1.84-1.7,0-1.7,0-1.7,1.707,0,1.467.026,2.96,0,4.427,0,.507.131.667.628.64.575-.053,1.151,0,1.726,0,.157,0,.366-.053.471.027.68.613.366,2.693-.209,2.613a17.351,17.351,0,0,0-2.04,0c-.418-.027-.549.133-.549.56.026,2.053.026,4.133,0,6.187,0,.507.209.587.6.56.68-.027,1.36,0,2.04,0a1.928,1.928,0,0,1,.392,0c.915.373.68,2.64,0,2.64h-4.734c-.6,0-.5-.427-.5-.773C581.107,558.081,581.107,554.667,581.107,551.254Z" transform="translate(-245.455 -11.654)"/><path class="a" d="M508.894,551.181c0-3.387.026-6.773,0-10.16,0-.613.131-.853.785-.827,1.386.053,2.8.027,4.185,0,.523,0,.732.107.758.693.026,1.92.026,1.92-1.831,1.92-1.752,0-1.752,0-1.752,1.76,0,1.413.026,2.853-.026,4.267-.026.64.183.8.758.747.628-.053,1.255,0,1.883-.027.418-.027.523.16.549.56.078,2.08.1,2.053-1.909,2.08-1.465,0-1.282-.213-1.282,1.333,0,1.707.026,3.44-.026,5.147-.026.693.209.88.863.827.732-.053,1.465,0,2.223-.027.366,0,.549.133.523.507v.08c.1,2.027.1,2.027-1.857,2.027-.994,0-2.014-.027-3.008.027-.654.027-.863-.16-.837-.853C508.92,557.955,508.894,554.568,508.894,551.181Z" transform="translate(-192.152 -11.581)"/><path class="a" d="M542.719,552.54c0-2.96-.026-5.92,0-8.853,0-.613-.183-.773-.758-.773-1.831,0-1.8-.027-1.778-1.92,0-.533.157-.693.68-.693,1.962.027,3.9.027,5.858,0,.445,0,.654.133.6.587v.16c.026,1.813.026,1.84-1.726,1.84-.68,0-.68.347-.68.853v17.013c0,1.52-.366,1.787-1.857,1.493-.5-.107-.34-.48-.34-.747Z" transform="translate(-215.254 -11.66)"/><path class="a" d="M856.938,617.367a9.36,9.36,0,0,0,.288-.907c.1-.48.392-.507.758-.48.418.027.34.347.34.587,0,.613.026,1.227,0,1.84,0,.24.131.613-.262.64-.445.027-.288-.347-.314-.587-.026-.133.026-.4-.131-.453-.314,0-.288.08-.314.16-.157.293.052.96-.445.88-.418-.053-.1-.8-.34-1.04a.213.213,0,0,0-.288-.027c-.026.027-.078.08-.078.107-.1.187-.026.373-.052.587s-.052.373-.288.4c-.235,0-.314-.16-.314-.373v-2.32c0-.267.131-.373.392-.373.288,0,.6-.08.68.347C856.6,616.727,856.808,616.887,856.938,617.367Z" transform="translate(-448.109 -67.154)"/><path class="a" d="M846.884,617.947v.8a.307.307,0,0,1-.34.347c-.235,0-.314-.133-.314-.373V617.2c0-.347,0-.667-.471-.613-.183.027-.392-.027-.366-.293,0-.267.209-.293.392-.293h1.569c.157,0,.34,0,.366.213a.45.45,0,0,1-.1.293,1.476,1.476,0,0,1-.5.08C846.78,616.587,846.884,617.413,846.884,617.947Z" transform="translate(-440.644 -67.173)"/></g></svg>