<?xml version="1.0" encoding="UTF-8"?>
<svg xmlns="http://www.w3.org/2000/svg" xmlns:xlink="http://www.w3.org/1999/xlink" width="506.23pt" height="75.02pt" viewBox="0 0 506.23 75.02" version="1.1">
<defs>
<clipPath id="clip1">
  <path d="M 342 0 L 426 0 L 426 75.019531 L 342 75.019531 Z M 342 0 "/>
</clipPath>
<clipPath id="clip2">
  <path d="M 493 61 L 506.230469 61 L 506.230469 75 L 493 75 Z M 493 61 "/>
</clipPath>
</defs>
<g id="surface1">
<path style=" stroke:none;fill-rule:nonzero;fill:rgb(83.499146%,18.798828%,15.299988%);fill-opacity:1;" d="M 0 74.300781 L 34.632813 0.789063 L 52.488281 0.789063 L 52.488281 17.851563 L 46.726563 17.851563 L 37.007813 38.589844 L 48.601563 38.589844 L 50.113281 38.515625 L 51.625 38.445313 L 52.488281 38.445313 L 52.488281 74.300781 L 43.632813 74.300781 L 48.457031 64.074219 L 48.960938 62.996094 L 49.320313 61.917969 L 49.609375 60.980469 L 49.753906 60.117188 L 49.894531 59.324219 L 49.824219 58.675781 L 49.753906 58.101563 L 49.535156 57.597656 L 49.175781 57.164063 L 48.742188 56.730469 L 48.167969 56.445313 L 47.519531 56.15625 L 46.726563 56.011719 L 45.863281 55.796875 L 44.785156 55.722656 L 28.945313 55.722656 L 20.160156 74.300781 Z M 52.488281 0.789063 L 77.257813 0.789063 L 78.695313 0.933594 L 80.0625 1.074219 L 81.359375 1.148438 L 82.585938 1.363281 L 83.664063 1.507813 L 84.742188 1.796875 L 85.753906 2.085938 L 86.617188 2.371094 L 87.480469 2.730469 L 88.199219 3.164063 L 88.847656 3.523438 L 89.425781 3.957031 L 90.433594 4.964844 L 90.792969 5.539063 L 91.152344 6.332031 L 91.367188 7.050781 L 91.585938 7.84375 L 91.726563 8.636719 L 91.726563 10.582031 L 91.585938 11.660156 L 91.367188 12.8125 L 91.152344 13.964844 L 90.863281 15.1875 L 90.433594 16.484375 L 89.929688 17.78125 L 89.351563 19.292969 L 88.777344 20.730469 L 88.054688 22.316406 L 85.824219 26.996094 L 85.105469 28.507813 L 84.382813 29.949219 L 83.59375 31.316406 L 82.726563 32.683594 L 82.007813 33.90625 L 81.074219 35.058594 L 80.207031 36.285156 L 79.34375 37.292969 L 78.40625 38.371094 L 77.472656 39.308594 L 76.464844 40.242188 L 75.527344 41.109375 L 74.449219 41.828125 L 73.441406 42.621094 L 72.359375 43.269531 L 71.28125 43.84375 L 70.414063 44.277344 L 69.480469 44.707031 L 68.472656 45.140625 L 67.464844 45.5 L 66.382813 45.859375 L 65.230469 46.21875 L 62.929688 46.796875 L 64.222656 47.011719 L 65.304688 47.226563 L 66.457031 47.515625 L 67.390625 47.804688 L 68.183594 48.09375 L 68.976563 48.453125 L 69.550781 48.8125 L 70.054688 49.171875 L 70.414063 49.605469 L 70.777344 50.109375 L 70.992188 50.683594 L 71.207031 51.261719 L 71.351563 51.980469 L 71.351563 53.5625 L 71.207031 54.5 L 71.0625 55.507813 L 70.847656 56.445313 L 70.558594 57.597656 L 70.199219 58.75 L 69.769531 59.972656 L 69.265625 61.339844 L 68.617188 62.636719 L 67.96875 64.074219 L 63.144531 74.300781 L 52.488281 74.300781 L 52.488281 38.445313 L 52.917969 38.371094 L 54.214844 38.226563 L 55.367188 38.011719 L 56.375 37.722656 L 57.3125 37.363281 L 58.105469 37.003906 L 59.039063 36.429688 L 59.90625 35.78125 L 60.839844 34.917969 L 61.632813 33.980469 L 62.496094 32.972656 L 63.214844 31.75 L 64.007813 30.378906 L 64.726563 28.941406 L 66.960938 24.1875 L 67.390625 23.179688 L 67.753906 22.316406 L 67.894531 21.453125 L 67.96875 20.730469 L 67.894531 20.371094 L 67.894531 20.085938 L 67.753906 19.796875 L 67.679688 19.507813 L 67.535156 19.292969 L 67.320313 19.074219 L 67.105469 18.859375 L 66.886719 18.714844 L 66.527344 18.5 L 66.023438 18.285156 L 65.375 18.210938 L 64.65625 18.066406 L 63.863281 17.996094 L 62.929688 17.925781 L 60.625 17.851563 L 52.488281 17.851563 L 52.488281 0.789063 "/>
<path style=" stroke:none;fill-rule:nonzero;fill:rgb(83.499146%,18.798828%,15.299988%);fill-opacity:1;" d="M 70.273438 74.300781 L 104.832031 0.789063 L 158.398438 0.789063 L 150.769531 16.988281 L 117.359375 16.988281 L 111.023438 30.667969 L 142.273438 30.667969 L 135.863281 44.347656 L 104.542969 44.347656 L 98.0625 58.101563 L 132.046875 58.101563 L 124.414063 74.300781 L 70.273438 74.300781 "/>
<path style=" stroke:none;fill-rule:nonzero;fill:rgb(83.499146%,18.798828%,15.299988%);fill-opacity:1;" d="M 130.535156 74.300781 L 165.097656 0.789063 L 179.785156 0.789063 L 179.785156 17.851563 L 177.265625 17.851563 L 158.761719 57.234375 L 176.832031 57.234375 L 177.625 57.164063 L 178.414063 57.019531 L 179.207031 56.875 L 179.785156 56.730469 L 179.785156 73.292969 L 178.273438 73.582031 L 176.328125 73.796875 L 172.296875 74.226563 L 170.0625 74.300781 Z M 179.785156 0.789063 L 205.847656 0.789063 L 207.863281 0.859375 L 209.664063 1.074219 L 211.390625 1.292969 L 212.976563 1.507813 L 214.488281 1.941406 L 215.855469 2.300781 L 217.152344 2.804688 L 218.230469 3.308594 L 219.3125 3.957031 L 221.039063 5.253906 L 221.6875 6.117188 L 222.265625 6.980469 L 222.695313 7.917969 L 222.984375 8.925781 L 223.199219 9.789063 L 223.34375 10.796875 L 223.414063 11.804688 L 223.34375 13.027344 L 223.199219 14.179688 L 222.984375 15.621094 L 222.769531 16.988281 L 222.335938 18.5 L 221.902344 20.085938 L 221.398438 21.738281 L 220.753906 23.539063 L 220.105469 25.339844 L 219.382813 27.285156 L 218.449219 29.300781 L 217.585938 31.386719 L 216.574219 33.621094 L 212.902344 41.253906 L 211.894531 43.484375 L 210.816406 45.714844 L 209.734375 47.730469 L 208.585938 49.75 L 207.574219 51.621094 L 206.425781 53.347656 L 205.414063 55.148438 L 204.335938 56.730469 L 203.183594 58.242188 L 202.105469 59.683594 L 201.023438 61.125 L 199.871094 62.347656 L 198.863281 63.5 L 197.785156 64.582031 L 196.632813 65.589844 L 195.625 66.523438 L 194.328125 67.460938 L 191.59375 69.1875 L 190.078125 69.980469 L 188.640625 70.628906 L 187.054688 71.277344 L 185.398438 71.851563 L 181.945313 72.859375 L 180.144531 73.21875 L 179.785156 73.292969 L 179.785156 56.730469 L 179.929688 56.730469 L 180.648438 56.445313 L 181.367188 56.226563 L 182.089844 56.011719 L 182.734375 55.652344 L 183.382813 55.292969 L 183.960938 54.859375 L 184.535156 54.429688 L 185.183594 53.925781 L 185.761719 53.421875 L 186.265625 52.917969 L 186.769531 52.269531 L 187.273438 51.546875 L 187.847656 50.683594 L 188.566406 49.605469 L 189.214844 48.378906 L 190.871094 45.210938 L 192.742188 41.253906 L 196.273438 33.90625 L 198 30.09375 L 199.367188 26.996094 L 200.230469 24.765625 L 200.519531 23.972656 L 200.664063 23.324219 L 200.734375 22.675781 L 200.808594 22.101563 L 200.808594 21.453125 L 200.734375 20.949219 L 200.664063 20.445313 L 200.449219 20.011719 L 200.230469 19.582031 L 199.945313 19.292969 L 199.65625 18.933594 L 199.222656 18.644531 L 198.792969 18.429688 L 198.289063 18.210938 L 197.785156 18.066406 L 197.136719 17.996094 L 196.488281 17.851563 L 179.785156 17.851563 L 179.785156 0.789063 "/>
<path style=" stroke:none;fill-rule:nonzero;fill:rgb(83.499146%,18.798828%,15.299988%);fill-opacity:1;" d="M 202.535156 74.300781 L 237.167969 0.789063 L 254.160156 0.789063 L 254.160156 17.851563 L 249.265625 17.851563 L 239.257813 39.164063 L 250.199219 39.164063 L 253.078125 39.09375 L 254.160156 39.019531 L 254.160156 55.722656 L 252.9375 55.867188 L 251.0625 56.011719 L 249.265625 56.15625 L 247.320313 56.226563 L 231.191406 56.226563 L 222.769531 74.300781 Z M 254.160156 0.789063 L 275.257813 0.789063 L 276.984375 0.933594 L 278.640625 1.074219 L 280.152344 1.21875 L 281.59375 1.363281 L 283.03125 1.578125 L 284.257813 1.867188 L 285.480469 2.15625 L 286.488281 2.445313 L 287.425781 2.875 L 288.359375 3.234375 L 289.078125 3.667969 L 289.800781 4.171875 L 290.375 4.675781 L 290.878906 5.179688 L 291.386719 5.898438 L 291.671875 6.621094 L 291.960938 7.484375 L 292.175781 8.421875 L 292.320313 9.429688 L 292.320313 10.4375 L 292.246094 11.589844 L 292.105469 12.8125 L 291.890625 14.179688 L 291.527344 15.546875 L 291.167969 16.988281 L 290.664063 18.570313 L 290.015625 20.15625 L 289.367188 21.882813 L 288.574219 23.613281 L 287.785156 25.554688 L 285.046875 31.316406 L 284.113281 33.261719 L 283.175781 35.058594 L 282.167969 36.859375 L 280.152344 40.171875 L 279.21875 41.613281 L 278.136719 43.125 L 277.054688 44.421875 L 275.976563 45.714844 L 273.742188 47.949219 L 272.664063 48.957031 L 271.4375 49.890625 L 270.289063 50.683594 L 269.0625 51.476563 L 267.910156 52.195313 L 266.976563 52.699219 L 265.824219 53.132813 L 264.671875 53.5625 L 263.449219 53.996094 L 262.152344 54.355469 L 260.785156 54.644531 L 259.34375 55.003906 L 257.832031 55.292969 L 256.246094 55.507813 L 254.664063 55.722656 L 254.160156 55.722656 L 254.160156 39.019531 L 254.375 39.019531 L 255.527344 38.949219 L 256.464844 38.730469 L 257.328125 38.589844 L 258.121094 38.445313 L 258.769531 38.226563 L 259.632813 37.796875 L 260.496094 37.21875 L 261.359375 36.570313 L 262.152344 35.707031 L 262.871094 34.84375 L 263.59375 33.765625 L 264.3125 32.613281 L 264.960938 31.316406 L 267.480469 25.773438 L 268.054688 24.621094 L 268.488281 23.46875 L 268.777344 22.460938 L 268.992188 21.667969 L 268.992188 20.15625 L 268.921875 19.652344 L 268.777344 19.363281 L 268.703125 19.21875 L 268.414063 18.859375 L 267.984375 18.570313 L 267.40625 18.355469 L 266.6875 18.210938 L 265.824219 18.066406 L 264.816406 17.996094 L 263.734375 17.851563 L 254.160156 17.851563 L 254.160156 0.789063 "/>
<path style=" stroke:none;fill-rule:nonzero;fill:rgb(83.499146%,18.798828%,15.299988%);fill-opacity:1;" d="M 258.769531 74.300781 L 313.414063 8.492188 L 313.414063 33.261719 L 300.890625 48.378906 L 313.414063 48.378906 L 313.414063 61.988281 L 289.4375 61.988281 L 279.359375 74.300781 Z M 313.414063 8.492188 L 319.824219 0.789063 L 350.496094 0.789063 L 336.167969 74.300781 L 315 74.300781 L 317.375 61.988281 L 313.414063 61.988281 L 313.414063 48.378906 L 320.183594 48.378906 L 325.945313 18.210938 L 313.414063 33.261719 L 313.414063 8.492188 "/>
<g clip-path="url(#clip1)" clip-rule="nonzero">
<path style=" stroke:none;fill-rule:nonzero;fill:rgb(83.499146%,18.798828%,15.299988%);fill-opacity:1;" d="M 411.550781 46.363281 L 410.617188 48.453125 L 409.679688 50.394531 L 408.671875 52.339844 L 407.734375 54.066406 L 406.65625 55.796875 L 405.648438 57.523438 L 404.640625 59.035156 L 403.558594 60.546875 L 402.480469 61.917969 L 401.398438 63.210938 L 400.246094 64.507813 L 399.167969 65.589844 L 398.015625 66.667969 L 396.863281 67.605469 L 395.640625 68.539063 L 394.414063 69.332031 L 393.335938 70.050781 L 392.039063 70.699219 L 390.742188 71.277344 L 389.449219 71.851563 L 386.566406 72.859375 L 384.984375 73.292969 L 383.398438 73.582031 L 381.742188 73.941406 L 379.945313 74.226563 L 378.21875 74.445313 L 376.273438 74.730469 L 374.398438 74.875 L 372.386719 75.019531 L 365.6875 75.019531 L 363.386719 74.949219 L 361.078125 74.804688 L 358.992188 74.660156 L 357.046875 74.445313 L 355.175781 74.085938 L 353.449219 73.796875 L 351.9375 73.363281 L 350.496094 73.003906 L 349.128906 72.5 L 347.902344 71.925781 L 346.824219 71.347656 L 345.960938 70.699219 L 345.238281 70.050781 L 344.519531 69.261719 L 344.230469 68.898438 L 344.015625 68.46875 L 343.726563 68.035156 L 343.585938 67.605469 L 343.296875 66.597656 L 343.078125 65.445313 L 342.9375 64.292969 L 342.9375 62.925781 L 343.078125 61.554688 L 343.296875 59.972656 L 343.585938 58.316406 L 344.015625 56.589844 L 344.519531 54.714844 L 345.167969 52.773438 L 345.890625 50.683594 L 346.679688 48.523438 L 347.617188 46.21875 L 348.695313 43.84375 L 349.847656 41.324219 L 353.375 33.835938 L 354.601563 31.316406 L 355.753906 28.941406 L 357.046875 26.636719 L 358.199219 24.476563 L 359.425781 22.386719 L 360.648438 20.371094 L 361.871094 18.570313 L 363.097656 16.84375 L 364.320313 15.1875 L 365.542969 13.605469 L 366.839844 12.234375 L 367.992188 10.867188 L 369.289063 9.714844 L 370.511719 8.5625 L 371.808594 7.554688 L 373.105469 6.621094 L 374.328125 5.828125 L 375.695313 5.035156 L 377.136719 4.386719 L 378.648438 3.738281 L 380.304688 3.164063 L 381.960938 2.660156 L 383.761719 2.15625 L 385.558594 1.722656 L 387.574219 1.292969 L 389.59375 1.003906 L 391.679688 0.714844 L 393.910156 0.429688 L 396.21875 0.285156 L 398.519531 0.140625 L 400.96875 -0.00390625 L 405.574219 -0.00390625 L 407.449219 0.0664063 L 409.246094 0.210938 L 410.976563 0.355469 L 412.632813 0.570313 L 414.144531 0.789063 L 415.585938 1.074219 L 416.878906 1.292969 L 418.105469 1.652344 L 419.183594 2.011719 L 420.265625 2.445313 L 421.128906 2.875 L 421.992188 3.453125 L 422.785156 3.957031 L 423.359375 4.605469 L 423.9375 5.179688 L 424.367188 5.972656 L 424.800781 6.835938 L 425.089844 7.699219 L 425.304688 8.707031 L 425.449219 9.859375 L 425.449219 11.011719 L 425.375 12.234375 L 425.230469 13.53125 L 424.945313 14.898438 L 424.65625 16.414063 L 424.226563 17.996094 L 423.71875 19.652344 L 423.070313 21.378906 L 422.351563 23.179688 L 421.558594 25.050781 L 420.695313 26.996094 L 420.550781 27.210938 L 400.394531 27.210938 L 401.039063 25.699219 L 401.617188 24.332031 L 401.976563 23.035156 L 402.265625 21.882813 L 402.335938 21.378906 L 402.335938 20.445313 L 402.265625 20.011719 L 402.265625 19.722656 L 402.121094 19.363281 L 401.976563 19.074219 L 401.761719 18.859375 L 401.542969 18.570313 L 401.328125 18.429688 L 400.679688 18.066406 L 399.960938 17.78125 L 399.023438 17.5625 L 397.871094 17.347656 L 396.574219 17.277344 L 395.136719 17.132813 L 392.398438 17.132813 L 391.394531 17.203125 L 390.457031 17.277344 L 389.449219 17.421875 L 388.511719 17.5625 L 387.648438 17.78125 L 386.855469 17.925781 L 386.0625 18.210938 L 385.273438 18.5 L 384.480469 18.789063 L 383.761719 19.074219 L 382.464844 19.941406 L 381.890625 20.300781 L 381.3125 20.804688 L 380.808594 21.308594 L 380.089844 22.101563 L 379.367188 23.035156 L 378.574219 24.261719 L 377.710938 25.699219 L 376.777344 27.355469 L 375.769531 29.300781 L 374.6875 31.386719 L 373.535156 33.765625 L 370.007813 41.324219 L 368.929688 43.699219 L 367.992188 45.789063 L 367.199219 47.730469 L 366.550781 49.386719 L 366.121094 50.828125 L 365.761719 52.050781 L 365.542969 53.058594 L 365.542969 53.78125 L 365.617188 54.285156 L 365.6875 54.789063 L 365.902344 55.148438 L 366.191406 55.582031 L 366.480469 56.011719 L 366.839844 56.300781 L 367.273438 56.589844 L 367.777344 56.875 L 368.425781 57.164063 L 369.070313 57.378906 L 369.71875 57.523438 L 370.511719 57.667969 L 371.375 57.738281 L 372.3125 57.882813 L 373.246094 57.957031 L 374.257813 57.957031 L 376.054688 57.882813 L 377.710938 57.8125 L 379.226563 57.667969 L 380.59375 57.378906 L 381.890625 57.09375 L 382.96875 56.730469 L 383.976563 56.300781 L 384.839844 55.796875 L 385.703125 55.148438 L 386.566406 54.355469 L 387.359375 53.421875 L 388.152344 52.339844 L 388.945313 51.117188 L 389.808594 49.675781 L 390.601563 48.09375 L 391.394531 46.363281 L 411.550781 46.363281 "/>
</g>
<path style=" stroke:none;fill-rule:nonzero;fill:rgb(83.499146%,18.798828%,15.299988%);fill-opacity:1;" d="M 423.71875 74.300781 L 403.414063 74.300781 L 438.121094 0.789063 L 458.28125 0.789063 L 423.71875 74.300781 "/>
<path style=" stroke:none;fill-rule:nonzero;fill:rgb(13.699341%,24.299622%,50.19989%);fill-opacity:1;" d="M 441.71875 35.925781 L 483.265625 1.003906 L 505.945313 1.003906 L 459.71875 41.253906 L 470.519531 74.589844 L 450.503906 74.589844 L 441.070313 43.050781 L 440.0625 39.597656 L 441.71875 35.925781 "/>
<g clip-path="url(#clip2)" clip-rule="nonzero">
<path style=" stroke:none;fill-rule:nonzero;fill:rgb(13.699341%,24.299622%,50.19989%);fill-opacity:1;" d="M 499.753906 64.363281 L 499.394531 64.363281 L 498.3125 64.4375 L 497.375 64.507813 L 497.375 71.78125 L 498.527344 71.78125 L 498.527344 68.613281 L 499.394531 68.613281 L 499.679688 68.683594 L 499.753906 68.683594 L 499.753906 67.75 L 498.527344 67.75 L 498.527344 65.300781 L 498.960938 65.226563 L 499.753906 65.226563 Z M 499.753906 74.445313 L 499.105469 74.445313 L 498.527344 74.371094 L 497.878906 74.226563 L 497.304688 74.011719 L 496.726563 73.722656 L 496.152344 73.363281 L 495.648438 73.074219 L 495.21875 72.644531 L 494.785156 72.140625 L 494.425781 71.636719 L 494.136719 71.132813 L 493.847656 70.554688 L 493.632813 69.980469 L 493.414063 69.261719 L 493.34375 68.683594 L 493.34375 67.316406 L 493.414063 66.667969 L 493.632813 66.019531 L 493.847656 65.445313 L 494.136719 64.867188 L 494.425781 64.363281 L 494.785156 63.859375 L 495.21875 63.355469 L 495.648438 62.996094 L 496.152344 62.5625 L 496.726563 62.203125 L 497.304688 61.988281 L 497.878906 61.773438 L 498.527344 61.554688 L 499.105469 61.554688 L 499.753906 61.484375 L 499.753906 62.492188 L 499.246094 62.492188 L 498.742188 62.5625 L 498.238281 62.707031 L 497.808594 62.925781 L 497.304688 63.140625 L 496.871094 63.429688 L 496.511719 63.789063 L 496.078125 64.074219 L 495.792969 64.507813 L 495.433594 64.941406 L 495.21875 65.371094 L 495 65.875 L 494.710938 66.882813 L 494.640625 67.386719 L 494.566406 67.964844 L 494.640625 68.539063 L 494.710938 69.117188 L 495 70.125 L 495.21875 70.628906 L 495.433594 71.058594 L 495.792969 71.492188 L 496.078125 71.851563 L 496.511719 72.210938 L 496.871094 72.570313 L 497.304688 72.859375 L 497.808594 73.074219 L 498.3125 73.292969 L 498.742188 73.363281 L 499.246094 73.4375 L 499.753906 73.507813 Z M 499.753906 68.683594 L 499.96875 68.757813 L 500.183594 68.757813 L 500.472656 68.972656 L 500.617188 69.117188 L 500.761719 69.332031 L 500.902344 69.621094 L 500.976563 69.90625 L 501.191406 71.132813 L 501.265625 71.492188 L 501.40625 71.78125 L 502.632813 71.78125 L 502.558594 71.5625 L 502.414063 71.203125 L 502.269531 70.699219 L 502.058594 69.621094 L 501.984375 69.261719 L 501.839844 68.972656 L 501.769531 68.757813 L 501.625 68.46875 L 501.40625 68.394531 L 501.191406 68.253906 L 500.976563 68.253906 L 500.976563 68.109375 L 501.265625 68.035156 L 501.480469 67.890625 L 501.769531 67.75 L 501.984375 67.53125 L 502.128906 67.316406 L 502.269531 67.027344 L 502.34375 66.738281 L 502.34375 66.378906 L 502.269531 65.875 L 502.199219 65.515625 L 501.984375 65.15625 L 501.695313 64.941406 L 501.335938 64.722656 L 500.832031 64.507813 L 500.183594 64.363281 L 499.753906 64.363281 L 499.753906 65.226563 L 499.824219 65.226563 L 500.183594 65.371094 L 500.542969 65.445313 L 500.761719 65.589844 L 500.976563 65.804688 L 501.046875 66.019531 L 501.191406 66.308594 L 501.191406 66.523438 L 501.121094 66.8125 L 501.046875 67.101563 L 500.902344 67.316406 L 500.6875 67.460938 L 500.398438 67.605469 L 500.113281 67.675781 L 499.753906 67.75 Z M 499.824219 61.484375 L 500.472656 61.554688 L 501.121094 61.554688 L 501.695313 61.773438 L 502.269531 61.988281 L 502.847656 62.203125 L 503.351563 62.5625 L 503.855469 62.996094 L 504.289063 63.355469 L 504.722656 63.859375 L 505.078125 64.363281 L 505.4375 64.867188 L 505.65625 65.445313 L 505.945313 66.019531 L 506.089844 66.667969 L 506.230469 67.964844 L 506.160156 68.683594 L 506.089844 69.261719 L 505.945313 69.980469 L 505.65625 70.554688 L 505.4375 71.132813 L 505.078125 71.636719 L 504.722656 72.140625 L 504.289063 72.644531 L 503.855469 73.074219 L 503.351563 73.363281 L 502.847656 73.722656 L 502.269531 74.011719 L 501.695313 74.226563 L 501.121094 74.371094 L 500.472656 74.445313 L 499.753906 74.445313 L 499.753906 73.507813 L 499.824219 73.507813 L 500.328125 73.4375 L 500.902344 73.363281 L 501.40625 73.292969 L 501.839844 73.074219 L 502.269531 72.859375 L 502.703125 72.570313 L 503.0625 72.285156 L 503.855469 71.492188 L 504.144531 71.132813 L 504.359375 70.628906 L 504.574219 70.195313 L 504.722656 69.691406 L 504.9375 69.117188 L 504.9375 66.882813 L 504.722656 66.378906 L 504.574219 65.875 L 504.359375 65.371094 L 504.144531 64.941406 L 503.855469 64.507813 L 503.496094 64.074219 L 503.0625 63.789063 L 502.703125 63.429688 L 502.269531 63.140625 L 501.839844 62.925781 L 501.40625 62.707031 L 500.902344 62.5625 L 500.328125 62.492188 L 499.753906 62.492188 L 499.753906 61.484375 L 499.824219 61.484375 "/>
</g>
</g>
</svg>