<?xml version="1.0" encoding="UTF-8"?>
<!DOCTYPE svg PUBLIC "-//W3C//DTD SVG 1.1//EN" "http://www.w3.org/Graphics/SVG/1.1/DTD/svg11.dtd">
<!-- Creator: CorelDRAW -->
<svg xmlns="http://www.w3.org/2000/svg" xml:space="preserve" width="4mm" height="4mm" version="1.1" style="shape-rendering:geometricPrecision; text-rendering:geometricPrecision; image-rendering:optimizeQuality; fill-rule:evenodd; clip-rule:evenodd"
viewBox="0 0 25.33 25.33"
 xmlns:xlink="http://www.w3.org/1999/xlink"
 xmlns:xodm="http://www.corel.com/coreldraw/odm/2003">
 <defs>
  <style type="text/css">
   <![CDATA[
    .fil0 {fill:#DE0007}
    .fil1 {fill:white}
   ]]>
  </style>
 </defs>
 <g id="Capa_x0020_1">
  <metadata id="CorelCorpID_0Corel-Layer"/>
  <rect class="fil0" x="0" y="-0" width="25.33" height="25.33"/>
  <path class="fil1" d="M12.66 17.87c-0.43,0 -0.78,-0.35 -0.78,-0.68l0 -0.19c0,-0.33 0.35,-0.68 0.68,-0.68l0.19 0c0.58,0 0.95,0.87 0.44,1.34 -0.13,0.12 -0.3,0.21 -0.54,0.21zm-0.81 -2.73l0 -7.29c0,-0.61 0.61,-0.47 1.24,-0.47 0.23,0 0.37,0.23 0.37,0.47l0 7.29c0,0.67 -0.55,0.53 -1.21,0.53 -0.25,0 -0.4,-0.24 -0.4,-0.53zm-7.13 -2.73c0,1.42 0.18,2.45 0.73,3.61 0.83,1.73 2.11,2.99 3.82,3.83 0.73,0.36 2.01,0.74 3.1,0.74 1.43,0 2.46,-0.17 3.64,-0.73 1.26,-0.61 2.32,-1.47 3.12,-2.62 0.81,-1.15 1.46,-2.73 1.46,-4.31 0,-1.43 -0.17,-2.47 -0.73,-3.64 -0.22,-0.45 -0.43,-0.82 -0.71,-1.21 -0.6,-0.84 -1.07,-1.3 -1.9,-1.91 -1.14,-0.84 -2.87,-1.45 -4.32,-1.45 -1.43,0 -2.47,0.17 -3.64,0.73 -0.45,0.21 -0.83,0.43 -1.21,0.71 -0.39,0.28 -0.71,0.54 -1.05,0.87 -0.32,0.32 -0.6,0.67 -0.88,1.04 -0.07,0.1 -0.12,0.18 -0.19,0.28 -0.07,0.12 -0.13,0.19 -0.19,0.31 -0.12,0.22 -0.22,0.4 -0.33,0.63 -0.42,0.84 -0.73,2.16 -0.73,3.11z"/>
 </g>
</svg>
